%TF.GenerationSoftware,KiCad,Pcbnew,9.0.0*%
%TF.CreationDate,2025-04-05T14:31:51+02:00*%
%TF.ProjectId,EEE3088F_PCB_Project,45454533-3038-4384-965f-5043425f5072,rev?*%
%TF.SameCoordinates,Original*%
%TF.FileFunction,Copper,L2,Bot*%
%TF.FilePolarity,Positive*%
%FSLAX46Y46*%
G04 Gerber Fmt 4.6, Leading zero omitted, Abs format (unit mm)*
G04 Created by KiCad (PCBNEW 9.0.0) date 2025-04-05 14:31:51*
%MOMM*%
%LPD*%
G01*
G04 APERTURE LIST*
G04 Aperture macros list*
%AMRoundRect*
0 Rectangle with rounded corners*
0 $1 Rounding radius*
0 $2 $3 $4 $5 $6 $7 $8 $9 X,Y pos of 4 corners*
0 Add a 4 corners polygon primitive as box body*
4,1,4,$2,$3,$4,$5,$6,$7,$8,$9,$2,$3,0*
0 Add four circle primitives for the rounded corners*
1,1,$1+$1,$2,$3*
1,1,$1+$1,$4,$5*
1,1,$1+$1,$6,$7*
1,1,$1+$1,$8,$9*
0 Add four rect primitives between the rounded corners*
20,1,$1+$1,$2,$3,$4,$5,0*
20,1,$1+$1,$4,$5,$6,$7,0*
20,1,$1+$1,$6,$7,$8,$9,0*
20,1,$1+$1,$8,$9,$2,$3,0*%
G04 Aperture macros list end*
%TA.AperFunction,ComponentPad*%
%ADD10C,5.600000*%
%TD*%
%TA.AperFunction,ComponentPad*%
%ADD11O,1.600000X3.000000*%
%TD*%
%TA.AperFunction,ComponentPad*%
%ADD12RoundRect,0.250000X-0.350000X-0.625000X0.350000X-0.625000X0.350000X0.625000X-0.350000X0.625000X0*%
%TD*%
%TA.AperFunction,ComponentPad*%
%ADD13O,1.200000X1.750000*%
%TD*%
%TA.AperFunction,ComponentPad*%
%ADD14O,1.117600X2.209800*%
%TD*%
%TA.AperFunction,ComponentPad*%
%ADD15O,1.117600X1.905000*%
%TD*%
%TA.AperFunction,ComponentPad*%
%ADD16R,1.700000X1.700000*%
%TD*%
%TA.AperFunction,ComponentPad*%
%ADD17O,1.700000X1.700000*%
%TD*%
%TA.AperFunction,ViaPad*%
%ADD18C,0.600000*%
%TD*%
%TA.AperFunction,Conductor*%
%ADD19C,0.500000*%
%TD*%
%TA.AperFunction,Conductor*%
%ADD20C,0.200000*%
%TD*%
G04 APERTURE END LIST*
D10*
%TO.P,H2,1*%
%TO.N,GND*%
X142575000Y-71450000D03*
%TD*%
D11*
%TO.P,SW1,1,1*%
%TO.N,/PWR SWITCH OUT*%
X124205000Y-58801000D03*
%TO.P,SW1,2,2*%
%TO.N,/PWR SWITCH IN*%
X128905000Y-58801000D03*
%TO.P,SW1,3,3*%
%TO.N,GND*%
X133605000Y-58801000D03*
%TD*%
D12*
%TO.P,J3,1,Pin_1*%
%TO.N,GND*%
X152797000Y-56732000D03*
D13*
%TO.P,J3,2,Pin_2*%
%TO.N,/BATTERY*%
X154797000Y-56732000D03*
%TD*%
D10*
%TO.P,H3,1*%
%TO.N,GND*%
X142475000Y-61450000D03*
%TD*%
%TO.P,H1,1*%
%TO.N,GND*%
X142575000Y-81400000D03*
%TD*%
D14*
%TO.P,J2,S1,SHELL_GND*%
%TO.N,GND*%
X164843998Y-55721700D03*
%TO.P,J2,S2,SHELL_GND*%
X173484002Y-55721700D03*
D15*
%TO.P,J2,S3,SHELL_GND*%
X164843968Y-59871700D03*
%TO.P,J2,S4,SHELL_GND*%
X173484032Y-59871700D03*
%TD*%
D16*
%TO.P,J1,1,Pin_1*%
%TO.N,/MOTOR2_B_OUT*%
X161875000Y-106160000D03*
D17*
%TO.P,J1,2,Pin_2*%
%TO.N,/MOTOR2_A_OUT*%
X161875000Y-108700000D03*
%TO.P,J1,3,Pin_3*%
%TO.N,/MOTOR4_A_OUT*%
X159335000Y-106160000D03*
%TO.P,J1,4,Pin_4*%
%TO.N,/MOTOR2_CTRL1*%
X159335000Y-108700000D03*
%TO.P,J1,5,Pin_5*%
%TO.N,/MOTOR4_B_OUT*%
X156795000Y-106160000D03*
%TO.P,J1,6,Pin_6*%
%TO.N,/MOTOR2_CTRL2*%
X156795000Y-108700000D03*
%TO.P,J1,7,Pin_7*%
%TO.N,/CTRL_EXT_LOAD2*%
X154255000Y-106160000D03*
%TO.P,J1,8,Pin_8*%
%TO.N,/MOTOR4_CTRL1*%
X154255000Y-108700000D03*
%TO.P,J1,9,Pin_9*%
%TO.N,/USART2_RX*%
X151715000Y-106160000D03*
%TO.P,J1,10,Pin_10*%
%TO.N,/MOTOR4_CTRL2*%
X151715000Y-108700000D03*
%TO.P,J1,11,Pin_11*%
%TO.N,/EXT_LOAD2_OUT*%
X149175000Y-106160000D03*
%TO.P,J1,12,Pin_12*%
%TO.N,/USART2_TX*%
X149175000Y-108700000D03*
%TO.P,J1,13,Pin_13*%
%TO.N,/FAST_CHARGE_CTRL*%
X146635000Y-106160000D03*
%TO.P,J1,14,Pin_14*%
%TO.N,/BATTERY*%
X146635000Y-108700000D03*
%TO.P,J1,15,Pin_15*%
%TO.N,unconnected-(J1-Pin_15-Pad15)*%
X144095000Y-106160000D03*
%TO.P,J1,16,Pin_16*%
%TO.N,/I2C1_SCL*%
X144095000Y-108700000D03*
%TO.P,J1,17,Pin_17*%
%TO.N,/I2C1_SDA*%
X141555000Y-106160000D03*
%TO.P,J1,18,Pin_18*%
%TO.N,/3V3 OUT*%
X141555000Y-108700000D03*
%TO.P,J1,19,Pin_19*%
%TO.N,GND*%
X139015000Y-106160000D03*
%TO.P,J1,20,Pin_20*%
%TO.N,/5V OUT*%
X139015000Y-108700000D03*
%TO.P,J1,21,Pin_21*%
%TO.N,/EXT_LOAD1_OUT*%
X136475000Y-106160000D03*
%TO.P,J1,22,Pin_22*%
%TO.N,/HV*%
X136475000Y-108700000D03*
%TO.P,J1,23,Pin_23*%
%TO.N,GND*%
X133935000Y-106160000D03*
%TO.P,J1,24,Pin_24*%
%TO.N,/MOTOR3_CTRL1*%
X133935000Y-108700000D03*
%TO.P,J1,25,Pin_25*%
%TO.N,/CTRL_EXT_LOAD1*%
X131395000Y-106160000D03*
%TO.P,J1,26,Pin_26*%
%TO.N,/MOTOR3_CTRL2*%
X131395000Y-108700000D03*
%TO.P,J1,27,Pin_27*%
%TO.N,/MOTOR3_A_OUT*%
X128855000Y-106160000D03*
%TO.P,J1,28,Pin_28*%
%TO.N,/MOTOR1_CTRL1*%
X128855000Y-108700000D03*
%TO.P,J1,29,Pin_29*%
%TO.N,/MOTOR3_B_OUT*%
X126315000Y-106160000D03*
%TO.P,J1,30,Pin_30*%
%TO.N,/MOTOR1_CTRL2*%
X126315000Y-108700000D03*
%TO.P,J1,31,Pin_31*%
%TO.N,/MOTOR1_B_OUT*%
X123775000Y-106160000D03*
%TO.P,J1,32,Pin_32*%
%TO.N,/MOTOR1_A_OUT*%
X123775000Y-108700000D03*
%TD*%
D18*
%TO.N,/5V OUT*%
X155000000Y-65800000D03*
X150876000Y-83185000D03*
X118364000Y-69596000D03*
X168148000Y-64643000D03*
X139827000Y-103378000D03*
X138684000Y-66548000D03*
%TO.N,/MOTOR1_A_OUT*%
X120650000Y-104902000D03*
X169545000Y-81153000D03*
X157734000Y-86360000D03*
%TO.N,/MOTOR1_CTRL1*%
X178816000Y-97663000D03*
X169926000Y-70739000D03*
%TO.N,/MOTOR2_CTRL1*%
X177800000Y-73025000D03*
%TO.N,/MOTOR1_B_OUT*%
X155956000Y-87376000D03*
X169926000Y-73406000D03*
%TO.N,/MOTOR1_CTRL2*%
X180848000Y-95758000D03*
X169989500Y-69278500D03*
%TO.N,/MOTOR2_B_OUT*%
X179832000Y-72898000D03*
%TO.N,/MOTOR3_B_OUT*%
X112776000Y-82804000D03*
X127508000Y-94996000D03*
%TO.N,/MOTOR4_B_OUT*%
X114427000Y-81661000D03*
%TO.N,/MOTOR3_A_OUT*%
X119888000Y-73152000D03*
X128778000Y-94107000D03*
%TO.N,/MOTOR4_CTRL2*%
X117094000Y-68707000D03*
X152400000Y-90043000D03*
X152781000Y-103251000D03*
X152781000Y-96901000D03*
%TO.N,/MOTOR3_CTRL1*%
X122555000Y-102362000D03*
%TO.N,/MOTOR4_A_OUT*%
X118237000Y-79375000D03*
%TO.N,/MOTOR4_CTRL1*%
X154305000Y-96393000D03*
X117094000Y-66675000D03*
X154305000Y-103378000D03*
X152527000Y-88011000D03*
%TO.N,/BATTERY*%
X119888000Y-87503000D03*
X114300000Y-62992000D03*
%TO.N,/3V3 OUT*%
X117602000Y-100965000D03*
X168100000Y-75400000D03*
X157200000Y-82700000D03*
X123190000Y-86233000D03*
X117983000Y-90678000D03*
%TO.N,/I2C1_SDA*%
X122682000Y-98933000D03*
%TO.N,/I2C1_SCL*%
X116078000Y-101092000D03*
X130810000Y-100457000D03*
%TO.N,/CTRL_EXT_LOAD2*%
X159004000Y-91567000D03*
%TO.N,/CTRL_EXT_LOAD1*%
X137668000Y-68707000D03*
X137668000Y-102108000D03*
%TO.N,/EXT_LOAD2_OUT*%
X156400000Y-71600000D03*
%TO.N,/EXT_LOAD1_OUT*%
X120269000Y-70104000D03*
%TO.N,/HV*%
X174271600Y-86006600D03*
X158496000Y-69596000D03*
%TO.N,/PWR SWITCH IN*%
X118110000Y-89027000D03*
X115443000Y-61087000D03*
%TO.N,GND*%
X131400000Y-84800000D03*
X111252000Y-87630000D03*
X134500000Y-72900000D03*
X111288000Y-62520000D03*
X133477000Y-64643000D03*
X133985000Y-102997000D03*
X150368000Y-89154000D03*
X112776000Y-96266000D03*
X119253000Y-71501000D03*
%TO.N,/CC2*%
X162433000Y-63246000D03*
X175641000Y-63246000D03*
%TD*%
D19*
%TO.N,/5V OUT*%
X153800000Y-67000000D02*
X155000000Y-65800000D01*
X138684000Y-96012000D02*
X139827000Y-97155000D01*
X121412000Y-66548000D02*
X138684000Y-66548000D01*
X156718000Y-64643000D02*
X156257000Y-64643000D01*
X150876000Y-83185000D02*
X150915000Y-83185000D01*
X156718000Y-64643000D02*
X168148000Y-64643000D01*
X156257000Y-64643000D02*
X155000000Y-65900000D01*
X138684000Y-66548000D02*
X138684000Y-96012000D01*
X150915000Y-83185000D02*
X153800000Y-80300000D01*
X118364000Y-69596000D02*
X121412000Y-66548000D01*
X139827000Y-97155000D02*
X139827000Y-103378000D01*
X153800000Y-80300000D02*
X153800000Y-67000000D01*
%TO.N,/MOTOR1_A_OUT*%
X164338000Y-86360000D02*
X169545000Y-81153000D01*
X123775000Y-108700000D02*
X120650000Y-105575000D01*
X120650000Y-105575000D02*
X120650000Y-104902000D01*
X157734000Y-86360000D02*
X164338000Y-86360000D01*
D20*
%TO.N,/MOTOR1_CTRL1*%
X180213000Y-70739000D02*
X180975000Y-71501000D01*
X169926000Y-70739000D02*
X180213000Y-70739000D01*
X180975000Y-93980000D02*
X178816000Y-96139000D01*
X180975000Y-92710000D02*
X180975000Y-92964000D01*
X180975000Y-92710000D02*
X180975000Y-93980000D01*
X178816000Y-96139000D02*
X178816000Y-97663000D01*
X180975000Y-71501000D02*
X180975000Y-92710000D01*
%TO.N,/MOTOR2_CTRL1*%
X177800000Y-84201000D02*
X177800000Y-73025000D01*
X160486000Y-107549000D02*
X160486000Y-101515000D01*
X159335000Y-108700000D02*
X160486000Y-107549000D01*
X160486000Y-101515000D02*
X177800000Y-84201000D01*
D19*
%TO.N,/MOTOR1_B_OUT*%
X157480000Y-85217000D02*
X155956000Y-86741000D01*
X162560000Y-85217000D02*
X157480000Y-85217000D01*
X169926000Y-77851000D02*
X162560000Y-85217000D01*
X169926000Y-73406000D02*
X169926000Y-77851000D01*
X155956000Y-86741000D02*
X155956000Y-87376000D01*
D20*
%TO.N,/MOTOR1_CTRL2*%
X179324000Y-68707000D02*
X182118000Y-71501000D01*
X182118000Y-89662000D02*
X182118000Y-94615000D01*
X182118000Y-94615000D02*
X180848000Y-95885000D01*
X170561000Y-68707000D02*
X179324000Y-68707000D01*
X182118000Y-71501000D02*
X182118000Y-89662000D01*
X170561000Y-68707000D02*
X169989500Y-69278500D01*
X169989500Y-69278500D02*
X169926000Y-69342000D01*
D19*
%TO.N,/MOTOR2_B_OUT*%
X161875000Y-106160000D02*
X161875000Y-102031000D01*
X179832000Y-84074000D02*
X179832000Y-83566000D01*
X179832000Y-83566000D02*
X179832000Y-72898000D01*
X161875000Y-102031000D02*
X179832000Y-84074000D01*
%TO.N,/MOTOR3_B_OUT*%
X127508000Y-94996000D02*
X127508000Y-94107000D01*
X112776000Y-87503000D02*
X112776000Y-82804000D01*
X117221000Y-91948000D02*
X112776000Y-87503000D01*
X125349000Y-91948000D02*
X117221000Y-91948000D01*
X127508000Y-94107000D02*
X125349000Y-91948000D01*
D20*
%TO.N,/MOTOR4_B_OUT*%
X123139200Y-110439200D02*
X121094500Y-108394500D01*
X154838400Y-110236000D02*
X154635200Y-110439200D01*
X112268000Y-81661000D02*
X114427000Y-81661000D01*
X112141000Y-81788000D02*
X112268000Y-81661000D01*
X155644000Y-107311000D02*
X155644000Y-109430400D01*
X138074400Y-110439200D02*
X123139200Y-110439200D01*
X154838400Y-110236000D02*
X154793000Y-110281400D01*
X110617000Y-97917000D02*
X110617000Y-83312000D01*
X155644000Y-109430400D02*
X154838400Y-110236000D01*
X121094500Y-108394500D02*
X121031000Y-108331000D01*
X156795000Y-106160000D02*
X155644000Y-107311000D01*
X110617000Y-83312000D02*
X112141000Y-81788000D01*
X154635200Y-110439200D02*
X138074400Y-110439200D01*
X121094500Y-108394500D02*
X110617000Y-97917000D01*
D19*
%TO.N,/MOTOR3_A_OUT*%
X119888000Y-73152000D02*
X128778000Y-82042000D01*
X128778000Y-82042000D02*
X128778000Y-94107000D01*
D20*
%TO.N,/MOTOR4_CTRL2*%
X148878500Y-86521500D02*
X152400000Y-90043000D01*
X120523000Y-65278000D02*
X117094000Y-68707000D01*
X148844000Y-86487000D02*
X148878500Y-86521500D01*
X148878500Y-86478500D02*
X147400000Y-85000000D01*
X152781000Y-103251000D02*
X152781000Y-96901000D01*
X148878500Y-86521500D02*
X148878500Y-86478500D01*
X147400000Y-59516000D02*
X144780000Y-56896000D01*
X132207000Y-56896000D02*
X132207000Y-59817000D01*
X126746000Y-65278000D02*
X120523000Y-65278000D01*
X147400000Y-85000000D02*
X147400000Y-59516000D01*
X144780000Y-56896000D02*
X132207000Y-56896000D01*
X132207000Y-59817000D02*
X126746000Y-65278000D01*
%TO.N,/MOTOR3_CTRL1*%
X128143000Y-102362000D02*
X122555000Y-102362000D01*
X131871760Y-107549000D02*
X130449000Y-107549000D01*
X133022760Y-108700000D02*
X131871760Y-107549000D01*
X133935000Y-108700000D02*
X133022760Y-108700000D01*
X130048000Y-107188000D02*
X130048000Y-104267000D01*
X130429000Y-107569000D02*
X130048000Y-107188000D01*
X130048000Y-104267000D02*
X128143000Y-102362000D01*
X130449000Y-107549000D02*
X130429000Y-107569000D01*
%TO.N,/MOTOR4_A_OUT*%
X159335000Y-106160000D02*
X158140400Y-107354600D01*
X158140400Y-107354600D02*
X158140400Y-110032800D01*
X109474000Y-98298000D02*
X109474000Y-82042000D01*
X131318000Y-111252000D02*
X122428000Y-111252000D01*
X157327600Y-110845600D02*
X156921200Y-111252000D01*
X109474000Y-82042000D02*
X112141000Y-79375000D01*
X158140400Y-110032800D02*
X157327600Y-110845600D01*
X122428000Y-111252000D02*
X119126000Y-107950000D01*
X112141000Y-79375000D02*
X118237000Y-79375000D01*
X156921200Y-111252000D02*
X131318000Y-111252000D01*
X119126000Y-107950000D02*
X109474000Y-98298000D01*
%TO.N,/MOTOR4_CTRL1*%
X131064000Y-56007000D02*
X131064000Y-59690000D01*
X119761000Y-64008000D02*
X117094000Y-66675000D01*
X148600000Y-84200000D02*
X148600000Y-58557000D01*
X154305000Y-103378000D02*
X154305000Y-96393000D01*
X148716000Y-84200000D02*
X148600000Y-84200000D01*
X148600000Y-58557000D02*
X146050000Y-56007000D01*
X126746000Y-64008000D02*
X119761000Y-64008000D01*
X152527000Y-88011000D02*
X148716000Y-84200000D01*
X146050000Y-56007000D02*
X131064000Y-56007000D01*
X131064000Y-59690000D02*
X126746000Y-64008000D01*
%TO.N,/BATTERY*%
X146635000Y-108700000D02*
X145484000Y-107549000D01*
D19*
X154797000Y-58309000D02*
X152453000Y-60653000D01*
X145542000Y-96758000D02*
X145542000Y-103759000D01*
X154178000Y-92075000D02*
X150225000Y-92075000D01*
X150225000Y-92075000D02*
X145542000Y-96758000D01*
X124206000Y-83185000D02*
X119888000Y-87503000D01*
X114300000Y-69596000D02*
X124206000Y-79502000D01*
X124206000Y-79502000D02*
X124206000Y-83185000D01*
X152453000Y-60653000D02*
X152453000Y-79347000D01*
X114300000Y-62992000D02*
X114300000Y-69596000D01*
X152453000Y-79347000D02*
X149900000Y-81900000D01*
D20*
X145484000Y-107549000D02*
X145484000Y-103817000D01*
D19*
X154797000Y-56732000D02*
X154797000Y-58309000D01*
X149900000Y-81900000D02*
X149900000Y-83700000D01*
X149900000Y-83700000D02*
X154178000Y-87978000D01*
X154178000Y-87978000D02*
X154178000Y-92075000D01*
D20*
X145484000Y-103817000D02*
X145542000Y-103759000D01*
%TO.N,/3V3 OUT*%
X132715000Y-107061000D02*
X132715000Y-105537000D01*
X135255000Y-107950000D02*
X134747000Y-107442000D01*
X128143000Y-100965000D02*
X117602000Y-100965000D01*
X132715000Y-105537000D02*
X128143000Y-100965000D01*
D19*
X118745000Y-90678000D02*
X123190000Y-86233000D01*
D20*
X135255000Y-107950000D02*
X135255000Y-109397800D01*
X141555000Y-109092200D02*
X141555000Y-108700000D01*
X160800000Y-82700000D02*
X157200000Y-82700000D01*
X135737600Y-109880400D02*
X140766800Y-109880400D01*
X140766800Y-109880400D02*
X141555000Y-109092200D01*
X168100000Y-75400000D02*
X160800000Y-82700000D01*
X135255000Y-109397800D02*
X135737600Y-109880400D01*
X133096000Y-107442000D02*
X132715000Y-107061000D01*
X134747000Y-107442000D02*
X133096000Y-107442000D01*
D19*
X117983000Y-90678000D02*
X118745000Y-90678000D01*
D20*
%TO.N,/I2C1_SDA*%
X132715000Y-100838000D02*
X130810000Y-98933000D01*
X135255000Y-104394000D02*
X133858000Y-104394000D01*
X130810000Y-98933000D02*
X122682000Y-98933000D01*
X132715000Y-103251000D02*
X132715000Y-100838000D01*
X135255000Y-106567760D02*
X135255000Y-104394000D01*
X141555000Y-106160000D02*
X140404000Y-107311000D01*
X140404000Y-107311000D02*
X135998240Y-107311000D01*
X135998240Y-107311000D02*
X135255000Y-106567760D01*
X133858000Y-104394000D02*
X132715000Y-103251000D01*
%TO.N,/I2C1_SCL*%
X130717000Y-100364000D02*
X130810000Y-100457000D01*
X116078000Y-101092000D02*
X116806000Y-100364000D01*
X116806000Y-100364000D02*
X130717000Y-100364000D01*
%TO.N,/CTRL_EXT_LOAD2*%
X153670000Y-94107000D02*
X156464000Y-94107000D01*
X152362000Y-104267000D02*
X150622000Y-104267000D01*
X150622000Y-104267000D02*
X150622000Y-95885000D01*
X150622000Y-95885000D02*
X151892000Y-95885000D01*
X151892000Y-95885000D02*
X153670000Y-94107000D01*
X156464000Y-94107000D02*
X159004000Y-91567000D01*
X154255000Y-106160000D02*
X152362000Y-104267000D01*
%TO.N,/CTRL_EXT_LOAD1*%
X137668000Y-102108000D02*
X137668000Y-68707000D01*
D19*
%TO.N,/EXT_LOAD2_OUT*%
X149175000Y-106160000D02*
X149175000Y-96189000D01*
X155194000Y-72806000D02*
X156400000Y-71600000D01*
X155194000Y-93218000D02*
X155194000Y-72806000D01*
X152146000Y-93218000D02*
X155194000Y-93218000D01*
X149175000Y-96189000D02*
X152146000Y-93218000D01*
%TO.N,/EXT_LOAD1_OUT*%
X130483000Y-70050000D02*
X135650000Y-70050000D01*
X130429000Y-70104000D02*
X130483000Y-70050000D01*
X135650000Y-70050000D02*
X136475000Y-70875000D01*
X120269000Y-70104000D02*
X130429000Y-70104000D01*
X136475000Y-70875000D02*
X136475000Y-106160000D01*
%TO.N,/HV*%
X158496000Y-69596000D02*
X160655000Y-71755000D01*
X160655000Y-71755000D02*
X176530000Y-71755000D01*
X176530000Y-83748200D02*
X174271600Y-86006600D01*
X176530000Y-71755000D02*
X176530000Y-83748200D01*
%TO.N,/PWR SWITCH IN*%
X114681000Y-61087000D02*
X115443000Y-61087000D01*
X118110000Y-87503000D02*
X122682000Y-82931000D01*
X112903000Y-69977000D02*
X112903000Y-62865000D01*
X122682000Y-79756000D02*
X112903000Y-69977000D01*
X118110000Y-89027000D02*
X118110000Y-87503000D01*
X122682000Y-82931000D02*
X122682000Y-79756000D01*
X112903000Y-62865000D02*
X114681000Y-61087000D01*
D20*
%TO.N,GND*%
X117983000Y-71501000D02*
X119253000Y-71501000D01*
X142621000Y-99660000D02*
X142575000Y-99614000D01*
X116459000Y-60198000D02*
X116459000Y-65405000D01*
X142475000Y-61450000D02*
X142575000Y-61550000D01*
X111288000Y-62520000D02*
X113610000Y-60198000D01*
X140654000Y-104521000D02*
X142621000Y-104521000D01*
X148609500Y-87395500D02*
X148570500Y-87395500D01*
X131400000Y-84800000D02*
X134500000Y-81700000D01*
X142575000Y-81400000D02*
X148570500Y-87395500D01*
X150368000Y-89154000D02*
X148609500Y-87395500D01*
D19*
X139826000Y-58801000D02*
X142475000Y-61450000D01*
D20*
X142575000Y-81400000D02*
X142575000Y-99614000D01*
X134500000Y-72900000D02*
X134500000Y-81700000D01*
X111252000Y-87630000D02*
X111252000Y-94742000D01*
X139015000Y-106160000D02*
X140654000Y-104521000D01*
X113610000Y-60198000D02*
X116459000Y-60198000D01*
X133985000Y-102997000D02*
X133985000Y-100711000D01*
X115824000Y-69342000D02*
X117983000Y-71501000D01*
X133985000Y-100711000D02*
X129540000Y-96266000D01*
X112776000Y-96266000D02*
X129540000Y-96266000D01*
D19*
X133605000Y-58801000D02*
X139826000Y-58801000D01*
D20*
X142575000Y-61550000D02*
X142575000Y-71450000D01*
X115824000Y-66040000D02*
X115824000Y-69342000D01*
X148570500Y-87395500D02*
X148932000Y-87757000D01*
X142621000Y-104521000D02*
X142621000Y-99660000D01*
X133477000Y-64643000D02*
X139282000Y-64643000D01*
X142575000Y-81400000D02*
X142575000Y-71450000D01*
X116459000Y-65405000D02*
X115824000Y-66040000D01*
X111252000Y-94742000D02*
X112776000Y-96266000D01*
X139282000Y-64643000D02*
X142475000Y-61450000D01*
%TO.N,/CC2*%
X162433000Y-63246000D02*
X175641000Y-63246000D01*
%TD*%
M02*
