%TF.GenerationSoftware,KiCad,Pcbnew,9.0.0*%
%TF.CreationDate,2025-03-28T23:25:53+02:00*%
%TF.ProjectId,EEE3088F_PCB_Project,45454533-3038-4384-965f-5043425f5072,rev?*%
%TF.SameCoordinates,Original*%
%TF.FileFunction,Soldermask,Top*%
%TF.FilePolarity,Negative*%
%FSLAX46Y46*%
G04 Gerber Fmt 4.6, Leading zero omitted, Abs format (unit mm)*
G04 Created by KiCad (PCBNEW 9.0.0) date 2025-03-28 23:25:53*
%MOMM*%
%LPD*%
G01*
G04 APERTURE LIST*
G04 Aperture macros list*
%AMRoundRect*
0 Rectangle with rounded corners*
0 $1 Rounding radius*
0 $2 $3 $4 $5 $6 $7 $8 $9 X,Y pos of 4 corners*
0 Add a 4 corners polygon primitive as box body*
4,1,4,$2,$3,$4,$5,$6,$7,$8,$9,$2,$3,0*
0 Add four circle primitives for the rounded corners*
1,1,$1+$1,$2,$3*
1,1,$1+$1,$4,$5*
1,1,$1+$1,$6,$7*
1,1,$1+$1,$8,$9*
0 Add four rect primitives between the rounded corners*
20,1,$1+$1,$2,$3,$4,$5,0*
20,1,$1+$1,$4,$5,$6,$7,0*
20,1,$1+$1,$6,$7,$8,$9,0*
20,1,$1+$1,$8,$9,$2,$3,0*%
G04 Aperture macros list end*
%ADD10C,0.000000*%
%ADD11C,1.500000*%
%ADD12R,1.820000X1.050000*%
%ADD13RoundRect,0.102000X0.710000X-0.500000X0.710000X0.500000X-0.710000X0.500000X-0.710000X-0.500000X0*%
%ADD14RoundRect,0.050800X-0.282850X-0.270000X0.282850X-0.270000X0.282850X0.270000X-0.282850X0.270000X0*%
%ADD15R,1.780000X1.020000*%
%ADD16R,0.990000X0.300000*%
%ADD17R,0.300000X0.990000*%
%ADD18R,3.150000X2.150000*%
%ADD19R,1.050000X1.820000*%
%ADD20RoundRect,0.102000X0.860000X-0.525000X0.860000X0.525000X-0.860000X0.525000X-0.860000X-0.525000X0*%
%ADD21R,0.450000X1.475000*%
%ADD22R,0.940000X1.430000*%
%ADD23R,1.020000X1.780000*%
%ADD24R,1.390000X0.910000*%
%ADD25R,0.568000X1.309599*%
%ADD26RoundRect,0.102000X-0.525000X-0.860000X0.525000X-0.860000X0.525000X0.860000X-0.525000X0.860000X0*%
%ADD27C,5.600000*%
%ADD28O,1.701600X3.101600*%
%ADD29R,1.200000X0.600000*%
%ADD30R,1.454899X0.558000*%
%ADD31R,1.742199X2.311400*%
%ADD32RoundRect,0.050800X-0.742500X-0.864000X0.742500X-0.864000X0.742500X0.864000X-0.742500X0.864000X0*%
%ADD33RoundRect,0.102000X-0.500000X-0.710000X0.500000X-0.710000X0.500000X0.710000X-0.500000X0.710000X0*%
%ADD34RoundRect,0.250000X-0.350000X-0.625000X0.350000X-0.625000X0.350000X0.625000X-0.350000X0.625000X0*%
%ADD35O,1.200000X1.750000*%
%ADD36RoundRect,0.102000X0.525000X0.860000X-0.525000X0.860000X-0.525000X-0.860000X0.525000X-0.860000X0*%
%ADD37R,1.030000X1.750000*%
%ADD38RoundRect,0.102000X-0.860000X0.525000X-0.860000X-0.525000X0.860000X-0.525000X0.860000X0.525000X0*%
%ADD39RoundRect,0.050800X0.250000X-0.175000X0.250000X0.175000X-0.250000X0.175000X-0.250000X-0.175000X0*%
%ADD40RoundRect,0.050800X0.500000X0.800000X-0.500000X0.800000X-0.500000X-0.800000X0.500000X-0.800000X0*%
%ADD41RoundRect,0.050800X0.699750X-0.500000X0.699750X0.500000X-0.699750X0.500000X-0.699750X-0.500000X0*%
%ADD42RoundRect,0.050800X-0.566250X-0.688500X0.566250X-0.688500X0.566250X0.688500X-0.566250X0.688500X0*%
%ADD43R,0.940000X0.730000*%
%ADD44RoundRect,0.050800X0.400000X-0.400000X0.400000X0.400000X-0.400000X0.400000X-0.400000X-0.400000X0*%
%ADD45R,0.700000X0.300000*%
%ADD46R,1.000000X1.700000*%
%ADD47R,0.127000X0.127000*%
%ADD48R,0.304800X1.143000*%
%ADD49O,1.117600X2.209800*%
%ADD50O,1.117600X1.905000*%
%ADD51RoundRect,0.102000X0.500000X0.710000X-0.500000X0.710000X-0.500000X-0.710000X0.500000X-0.710000X0*%
%ADD52R,1.075000X0.450000*%
%ADD53RoundRect,0.050800X-0.403250X-0.432000X0.403250X-0.432000X0.403250X0.432000X-0.403250X0.432000X0*%
%ADD54R,1.700000X1.700000*%
%ADD55O,1.700000X1.700000*%
G04 APERTURE END LIST*
D10*
%TO.C,J2*%
G36*
X165796907Y-53651200D02*
G01*
X165187307Y-53651200D01*
X165187307Y-52508200D01*
X165796907Y-52508200D01*
X165796907Y-53651200D01*
G37*
G36*
X166601833Y-53651200D02*
G01*
X165992233Y-53651200D01*
X165992233Y-52508200D01*
X166601833Y-52508200D01*
X166601833Y-53651200D01*
G37*
G36*
X171407767Y-53651200D02*
G01*
X170798167Y-53651200D01*
X170798167Y-52508200D01*
X171407767Y-52508200D01*
X171407767Y-53651200D01*
G37*
G36*
X172212693Y-53651200D02*
G01*
X171603093Y-53651200D01*
X171603093Y-52508200D01*
X172212693Y-52508200D01*
X172212693Y-53651200D01*
G37*
%TD*%
D11*
%TO.C,TP39*%
X106150000Y-75750000D03*
%TD*%
D12*
%TO.C,C11*%
X132650000Y-82350000D03*
X132650000Y-79570000D03*
%TD*%
D11*
%TO.C,TP21*%
X120050000Y-73400000D03*
%TD*%
%TO.C,TP4*%
X166200000Y-63250000D03*
%TD*%
D12*
%TO.C,C13*%
X170600000Y-69740000D03*
X170600000Y-66960000D03*
%TD*%
D11*
%TO.C,TP37*%
X106150000Y-71550000D03*
%TD*%
D13*
%TO.C,R21*%
X125550000Y-83035000D03*
X125550000Y-81165000D03*
%TD*%
D11*
%TO.C,TP31*%
X122350000Y-89250000D03*
%TD*%
%TO.C,TP25*%
X134900000Y-69100000D03*
%TD*%
D14*
%TO.C,R16*%
X158794300Y-87235000D03*
X159659900Y-87235000D03*
%TD*%
D11*
%TO.C,TP22*%
X152785000Y-91600000D03*
%TD*%
%TO.C,TP8*%
X119400000Y-56200000D03*
%TD*%
%TO.C,TP34*%
X178400000Y-93250000D03*
%TD*%
D15*
%TO.C,C19*%
X137550000Y-101200000D03*
X137550000Y-98440000D03*
%TD*%
D11*
%TO.C,TP23*%
X134400000Y-64650000D03*
%TD*%
D16*
%TO.C,IC7*%
X138835000Y-96550000D03*
D17*
X139285000Y-97500000D03*
X139785000Y-97500000D03*
X140285000Y-97500000D03*
X140785000Y-97500000D03*
X141285000Y-97500000D03*
X141785000Y-97500000D03*
X142285000Y-97500000D03*
X142785000Y-97500000D03*
D16*
X143235000Y-96550000D03*
X143235000Y-95050000D03*
D17*
X142785000Y-94100000D03*
X142285000Y-94100000D03*
X141785000Y-94100000D03*
X141285000Y-94100000D03*
X140785000Y-94100000D03*
X140285000Y-94100000D03*
X139785000Y-94100000D03*
X139285000Y-94100000D03*
D16*
X138835000Y-95050000D03*
D18*
X141035000Y-95800000D03*
%TD*%
D19*
%TO.C,C24*%
X165804300Y-88085000D03*
X168584300Y-88085000D03*
%TD*%
D11*
%TO.C,TP18*%
X119150000Y-82900000D03*
%TD*%
D20*
%TO.C,R7*%
X175450000Y-83970000D03*
X175450000Y-81050000D03*
%TD*%
D14*
%TO.C,R27*%
X162261500Y-87235000D03*
X163127100Y-87235000D03*
%TD*%
D20*
%TO.C,R9*%
X172250000Y-84010000D03*
X172250000Y-81090000D03*
%TD*%
D21*
%TO.C,IC1*%
X171525000Y-78138000D03*
X172175000Y-78138000D03*
X172825000Y-78138000D03*
X173475000Y-78138000D03*
X174125000Y-78138000D03*
X174775000Y-78138000D03*
X175425000Y-78138000D03*
X176075000Y-78138000D03*
X176075000Y-72262000D03*
X175425000Y-72262000D03*
X174775000Y-72262000D03*
X174125000Y-72262000D03*
X173475000Y-72262000D03*
X172825000Y-72262000D03*
X172175000Y-72262000D03*
X171525000Y-72262000D03*
%TD*%
D22*
%TO.C,C21*%
X148045000Y-91300000D03*
X149685000Y-91300000D03*
%TD*%
D23*
%TO.C,C18*%
X140340000Y-100050000D03*
X143100000Y-100050000D03*
%TD*%
D24*
%TO.C,C5*%
X176150000Y-69800000D03*
X176150000Y-68160000D03*
%TD*%
D25*
%TO.C,Q3*%
X161494299Y-92708100D03*
X163394301Y-92708100D03*
X162444300Y-90677700D03*
%TD*%
D11*
%TO.C,TP38*%
X105250000Y-84850000D03*
%TD*%
D22*
%TO.C,C22*%
X148045000Y-93950000D03*
X149685000Y-93950000D03*
%TD*%
D26*
%TO.C,R3*%
X116690000Y-90850000D03*
X119610000Y-90850000D03*
%TD*%
D19*
%TO.C,C20*%
X147945000Y-96750000D03*
X150725000Y-96750000D03*
%TD*%
D12*
%TO.C,C2*%
X136585000Y-91320000D03*
X136585000Y-94100000D03*
%TD*%
D11*
%TO.C,TP36*%
X179850000Y-74500000D03*
%TD*%
D27*
%TO.C,H2*%
X142575000Y-71450000D03*
%TD*%
D28*
%TO.C,SW1*%
X134600000Y-57650000D03*
X129900000Y-57650000D03*
X125200000Y-57650000D03*
%TD*%
D29*
%TO.C,Q6*%
X160300000Y-74600000D03*
X160300000Y-76500000D03*
X162800000Y-75550000D03*
%TD*%
D11*
%TO.C,TP28*%
X166100000Y-74050000D03*
%TD*%
%TO.C,TP5*%
X166350000Y-67900000D03*
%TD*%
D30*
%TO.C,U2*%
X165972952Y-91130000D03*
X165972952Y-92400000D03*
X165972952Y-93670000D03*
X165972952Y-94940000D03*
X171415648Y-94940000D03*
X171415648Y-93670000D03*
X171415648Y-92400000D03*
X171415648Y-91130000D03*
%TD*%
D31*
%TO.C,L4*%
X149099999Y-101000000D03*
X145808401Y-101000000D03*
%TD*%
D11*
%TO.C,TP20*%
X129200000Y-85900000D03*
%TD*%
D12*
%TO.C,C10*%
X113475000Y-67462000D03*
X113475000Y-64682000D03*
%TD*%
D11*
%TO.C,TP6*%
X159900000Y-55700000D03*
%TD*%
%TO.C,TP30*%
X114050000Y-99600000D03*
%TD*%
D32*
%TO.C,C23*%
X170457400Y-63090000D03*
X173642600Y-63090000D03*
%TD*%
D33*
%TO.C,R12*%
X132900000Y-97100000D03*
X134770000Y-97100000D03*
%TD*%
D21*
%TO.C,IC2*%
X110900000Y-76300000D03*
X111550000Y-76300000D03*
X112200000Y-76300000D03*
X112850000Y-76300000D03*
X113500000Y-76300000D03*
X114150000Y-76300000D03*
X114800000Y-76300000D03*
X115450000Y-76300000D03*
X115450000Y-70424000D03*
X114800000Y-70424000D03*
X114150000Y-70424000D03*
X113500000Y-70424000D03*
X112850000Y-70424000D03*
X112200000Y-70424000D03*
X111550000Y-70424000D03*
X110900000Y-70424000D03*
%TD*%
D20*
%TO.C,R6*%
X114925000Y-82322000D03*
X114925000Y-79402000D03*
%TD*%
D34*
%TO.C,J3*%
X151150000Y-54750000D03*
D35*
X153150000Y-54750000D03*
%TD*%
D36*
%TO.C,R4*%
X126060000Y-69650000D03*
X123140000Y-69650000D03*
%TD*%
D11*
%TO.C,TP12*%
X109100000Y-95200000D03*
%TD*%
%TO.C,TP32*%
X122200000Y-99250000D03*
%TD*%
D36*
%TO.C,R15*%
X157360000Y-71600000D03*
X154440000Y-71600000D03*
%TD*%
D12*
%TO.C,C9*%
X173450000Y-69690000D03*
X173450000Y-66910000D03*
%TD*%
D14*
%TO.C,R28*%
X174015600Y-92700000D03*
X174881200Y-92700000D03*
%TD*%
D37*
%TO.C,C16*%
X137310000Y-88250000D03*
X140090000Y-88250000D03*
%TD*%
D26*
%TO.C,R5*%
X160290000Y-71600000D03*
X163210000Y-71600000D03*
%TD*%
D33*
%TO.C,R25*%
X132850000Y-100400000D03*
X134720000Y-100400000D03*
%TD*%
D11*
%TO.C,TP29*%
X113200000Y-89500000D03*
%TD*%
%TO.C,TP26*%
X151850000Y-76800000D03*
%TD*%
D26*
%TO.C,R14*%
X128740000Y-69750000D03*
X131660000Y-69750000D03*
%TD*%
D11*
%TO.C,TP24*%
X151250000Y-72200000D03*
%TD*%
D29*
%TO.C,Q5*%
X126000000Y-66700000D03*
X126000000Y-64800000D03*
X123500000Y-65750000D03*
%TD*%
D11*
%TO.C,TP14*%
X159850000Y-82150000D03*
%TD*%
%TO.C,TP7*%
X159850000Y-60400000D03*
%TD*%
D12*
%TO.C,C14*%
X110425000Y-67462000D03*
X110425000Y-64682000D03*
%TD*%
D38*
%TO.C,R20*%
X113900000Y-93180000D03*
X113900000Y-96100000D03*
%TD*%
D11*
%TO.C,TP11*%
X167565600Y-102750000D03*
%TD*%
D39*
%TO.C,U1*%
X177263000Y-54620500D03*
X177263000Y-55270500D03*
X177263000Y-55920500D03*
X179263000Y-55920500D03*
X179263000Y-55270500D03*
X179263000Y-54620500D03*
D40*
X178263000Y-55270500D03*
%TD*%
D11*
%TO.C,TP16*%
X152550000Y-100450000D03*
%TD*%
D20*
%TO.C,R19*%
X122050000Y-95870000D03*
X122050000Y-92950000D03*
%TD*%
D11*
%TO.C,TP17*%
X150650000Y-84950000D03*
%TD*%
D41*
%TO.C,LED1*%
X162208300Y-98350900D03*
X162208300Y-96250300D03*
%TD*%
D11*
%TO.C,TP40*%
X105250000Y-80500000D03*
%TD*%
%TO.C,TP15*%
X132850000Y-75500000D03*
%TD*%
D27*
%TO.C,H3*%
X142475000Y-61450000D03*
%TD*%
D24*
%TO.C,C6*%
X116425000Y-67542000D03*
X116425000Y-65902000D03*
%TD*%
D29*
%TO.C,Q2*%
X154750000Y-74700000D03*
X154750000Y-76600000D03*
X157250000Y-75650000D03*
%TD*%
D42*
%TO.C,L2*%
X171311900Y-87535000D03*
X173244300Y-87535000D03*
%TD*%
D27*
%TO.C,H1*%
X142575000Y-81400000D03*
%TD*%
D43*
%TO.C,C15*%
X145885000Y-94590000D03*
X145885000Y-96010000D03*
%TD*%
D31*
%TO.C,L5*%
X126404201Y-77100000D03*
X129695799Y-77100000D03*
%TD*%
D33*
%TO.C,R18*%
X121465000Y-76150000D03*
X123335000Y-76150000D03*
%TD*%
D11*
%TO.C,TP3*%
X160150000Y-65000000D03*
%TD*%
D33*
%TO.C,R11*%
X143750000Y-88700000D03*
X145620000Y-88700000D03*
%TD*%
D44*
%TO.C,LED2*%
X167495300Y-98685200D03*
X169094300Y-98685000D03*
%TD*%
D11*
%TO.C,TP27*%
X120300000Y-67500000D03*
%TD*%
D20*
%TO.C,R8*%
X111025000Y-82332000D03*
X111025000Y-79412000D03*
%TD*%
D22*
%TO.C,C17*%
X148085000Y-88500000D03*
X149725000Y-88500000D03*
%TD*%
%TO.C,C3*%
X128330000Y-72800000D03*
X129970000Y-72800000D03*
%TD*%
D45*
%TO.C,IC3*%
X128000000Y-81000000D03*
X128000000Y-81500000D03*
X128000000Y-82000000D03*
X128000000Y-82500000D03*
X130100000Y-82500000D03*
X130100000Y-82000000D03*
X130100000Y-81500000D03*
X130100000Y-81000000D03*
D46*
X129050000Y-81750000D03*
%TD*%
D11*
%TO.C,TP10*%
X177350000Y-64090000D03*
%TD*%
%TO.C,TP33*%
X178500000Y-88650000D03*
%TD*%
D29*
%TO.C,Q1*%
X131400000Y-66700000D03*
X131400000Y-64800000D03*
X128900000Y-65750000D03*
%TD*%
D33*
%TO.C,R26*%
X139565000Y-91550000D03*
X141435000Y-91550000D03*
%TD*%
D11*
%TO.C,TP13*%
X165500000Y-81950000D03*
%TD*%
D38*
%TO.C,R10*%
X133335000Y-91390000D03*
X133335000Y-94310000D03*
%TD*%
D47*
%TO.C,J2*%
X165339707Y-53079700D03*
X166144633Y-53079700D03*
D48*
X167449685Y-53079700D03*
X168449937Y-53079700D03*
X168950063Y-53079700D03*
X166949559Y-53079700D03*
D47*
X171255367Y-53079700D03*
X172060293Y-53079700D03*
X171755493Y-53079700D03*
X170950567Y-53079700D03*
D48*
X170450441Y-53079700D03*
X169450189Y-53079700D03*
X167949811Y-53079700D03*
X169950315Y-53079700D03*
D47*
X166449433Y-53079700D03*
X165644507Y-53079700D03*
D49*
X164379998Y-53670700D03*
X173020002Y-53670700D03*
D50*
X164379968Y-57820700D03*
X173020032Y-57820700D03*
%TD*%
D51*
%TO.C,R13*%
X145655000Y-91500000D03*
X143785000Y-91500000D03*
%TD*%
D52*
%TO.C,IC5*%
X116712000Y-93425000D03*
X116712000Y-94075000D03*
X116712000Y-94725000D03*
X116712000Y-95375000D03*
X119388000Y-95375000D03*
X119388000Y-94725000D03*
X119388000Y-94075000D03*
X119388000Y-93425000D03*
%TD*%
D14*
%TO.C,R30*%
X161678700Y-101585000D03*
X162544300Y-101585000D03*
%TD*%
D53*
%TO.C,R29*%
X177696600Y-59900000D03*
X179203400Y-59900000D03*
%TD*%
D11*
%TO.C,TP19*%
X134200000Y-87900000D03*
%TD*%
D43*
%TO.C,C1*%
X122300000Y-83260000D03*
X122300000Y-81840000D03*
%TD*%
D33*
%TO.C,R17*%
X121465000Y-79300000D03*
X123335000Y-79300000D03*
%TD*%
D11*
%TO.C,TP35*%
X179900000Y-78800000D03*
%TD*%
D23*
%TO.C,C7*%
X119530000Y-98000000D03*
X116770000Y-98000000D03*
%TD*%
D54*
%TO.C,J1*%
X161875000Y-106160000D03*
D55*
X161875000Y-108700000D03*
X159335000Y-106160000D03*
X159335000Y-108700000D03*
X156795000Y-106160000D03*
X156795000Y-108700000D03*
X154255000Y-106160000D03*
X154255000Y-108700000D03*
X151715000Y-106160000D03*
X151715000Y-108700000D03*
X149175000Y-106160000D03*
X149175000Y-108700000D03*
X146635000Y-106160000D03*
X146635000Y-108700000D03*
X144095000Y-106160000D03*
X144095000Y-108700000D03*
X141555000Y-106160000D03*
X141555000Y-108700000D03*
X139015000Y-106160000D03*
X139015000Y-108700000D03*
X136475000Y-106160000D03*
X136475000Y-108700000D03*
X133935000Y-106160000D03*
X133935000Y-108700000D03*
X131395000Y-106160000D03*
X131395000Y-108700000D03*
X128855000Y-106160000D03*
X128855000Y-108700000D03*
X126315000Y-106160000D03*
X126315000Y-108700000D03*
X123775000Y-106160000D03*
X123775000Y-108700000D03*
%TD*%
M02*
