%TF.GenerationSoftware,KiCad,Pcbnew,9.0.0*%
%TF.CreationDate,2025-03-28T23:25:53+02:00*%
%TF.ProjectId,EEE3088F_PCB_Project,45454533-3038-4384-965f-5043425f5072,rev?*%
%TF.SameCoordinates,Original*%
%TF.FileFunction,Copper,L2,Bot*%
%TF.FilePolarity,Positive*%
%FSLAX46Y46*%
G04 Gerber Fmt 4.6, Leading zero omitted, Abs format (unit mm)*
G04 Created by KiCad (PCBNEW 9.0.0) date 2025-03-28 23:25:53*
%MOMM*%
%LPD*%
G01*
G04 APERTURE LIST*
G04 Aperture macros list*
%AMRoundRect*
0 Rectangle with rounded corners*
0 $1 Rounding radius*
0 $2 $3 $4 $5 $6 $7 $8 $9 X,Y pos of 4 corners*
0 Add a 4 corners polygon primitive as box body*
4,1,4,$2,$3,$4,$5,$6,$7,$8,$9,$2,$3,0*
0 Add four circle primitives for the rounded corners*
1,1,$1+$1,$2,$3*
1,1,$1+$1,$4,$5*
1,1,$1+$1,$6,$7*
1,1,$1+$1,$8,$9*
0 Add four rect primitives between the rounded corners*
20,1,$1+$1,$2,$3,$4,$5,0*
20,1,$1+$1,$4,$5,$6,$7,0*
20,1,$1+$1,$6,$7,$8,$9,0*
20,1,$1+$1,$8,$9,$2,$3,0*%
G04 Aperture macros list end*
%TA.AperFunction,ComponentPad*%
%ADD10C,5.600000*%
%TD*%
%TA.AperFunction,ComponentPad*%
%ADD11O,1.600000X3.000000*%
%TD*%
%TA.AperFunction,ComponentPad*%
%ADD12RoundRect,0.250000X-0.350000X-0.625000X0.350000X-0.625000X0.350000X0.625000X-0.350000X0.625000X0*%
%TD*%
%TA.AperFunction,ComponentPad*%
%ADD13O,1.200000X1.750000*%
%TD*%
%TA.AperFunction,ComponentPad*%
%ADD14O,1.117600X2.209800*%
%TD*%
%TA.AperFunction,ComponentPad*%
%ADD15O,1.117600X1.905000*%
%TD*%
%TA.AperFunction,ComponentPad*%
%ADD16R,1.700000X1.700000*%
%TD*%
%TA.AperFunction,ComponentPad*%
%ADD17O,1.700000X1.700000*%
%TD*%
G04 APERTURE END LIST*
D10*
%TO.P,H2,1*%
%TO.N,GND*%
X142575000Y-71450000D03*
%TD*%
D11*
%TO.P,SW1,1,1*%
%TO.N,/PWR SWITCH OUT*%
X134600000Y-57650000D03*
%TO.P,SW1,2,2*%
%TO.N,/PWR SWITCH IN*%
X129900000Y-57650000D03*
%TO.P,SW1,3,3*%
%TO.N,GND*%
X125200000Y-57650000D03*
%TD*%
D12*
%TO.P,J3,1,Pin_1*%
%TO.N,GND*%
X151150000Y-54750000D03*
D13*
%TO.P,J3,2,Pin_2*%
%TO.N,/BATTERY*%
X153150000Y-54750000D03*
%TD*%
D10*
%TO.P,H3,1*%
%TO.N,GND*%
X142475000Y-61450000D03*
%TD*%
%TO.P,H1,1*%
%TO.N,GND*%
X142575000Y-81400000D03*
%TD*%
D14*
%TO.P,J2,S1,SHELL_GND*%
%TO.N,GND*%
X164379998Y-53670700D03*
%TO.P,J2,S2,SHELL_GND*%
X173020002Y-53670700D03*
D15*
%TO.P,J2,S3,SHELL_GND*%
X164379968Y-57820700D03*
%TO.P,J2,S4,SHELL_GND*%
X173020032Y-57820700D03*
%TD*%
D16*
%TO.P,J1,1,Pin_1*%
%TO.N,/MOTOR2_B_OUT*%
X161875000Y-106160000D03*
D17*
%TO.P,J1,2,Pin_2*%
%TO.N,/MOTOR2_A_OUT*%
X161875000Y-108700000D03*
%TO.P,J1,3,Pin_3*%
%TO.N,/MOTOR4_A_OUT*%
X159335000Y-106160000D03*
%TO.P,J1,4,Pin_4*%
%TO.N,/MOTOR2_CTRL1*%
X159335000Y-108700000D03*
%TO.P,J1,5,Pin_5*%
%TO.N,/MOTOR4_B_OUT*%
X156795000Y-106160000D03*
%TO.P,J1,6,Pin_6*%
%TO.N,/MOTOR2_CTRL2*%
X156795000Y-108700000D03*
%TO.P,J1,7,Pin_7*%
%TO.N,/CTRL_EXT_LOAD2*%
X154255000Y-106160000D03*
%TO.P,J1,8,Pin_8*%
%TO.N,/MOTOR4_CTRL1*%
X154255000Y-108700000D03*
%TO.P,J1,9,Pin_9*%
%TO.N,/USART2_RX*%
X151715000Y-106160000D03*
%TO.P,J1,10,Pin_10*%
%TO.N,/MOTOR4_CTRL2*%
X151715000Y-108700000D03*
%TO.P,J1,11,Pin_11*%
%TO.N,/EXT_LOAD2_OUT*%
X149175000Y-106160000D03*
%TO.P,J1,12,Pin_12*%
%TO.N,/USART2_TX*%
X149175000Y-108700000D03*
%TO.P,J1,13,Pin_13*%
%TO.N,/FAST_CHARGE_CTRL*%
X146635000Y-106160000D03*
%TO.P,J1,14,Pin_14*%
%TO.N,/BATTERY*%
X146635000Y-108700000D03*
%TO.P,J1,15,Pin_15*%
%TO.N,unconnected-(J1-Pin_15-Pad15)*%
X144095000Y-106160000D03*
%TO.P,J1,16,Pin_16*%
%TO.N,/I2C1_SCL*%
X144095000Y-108700000D03*
%TO.P,J1,17,Pin_17*%
%TO.N,/I2C1_SDA*%
X141555000Y-106160000D03*
%TO.P,J1,18,Pin_18*%
%TO.N,/3V3 OUT*%
X141555000Y-108700000D03*
%TO.P,J1,19,Pin_19*%
%TO.N,GND*%
X139015000Y-106160000D03*
%TO.P,J1,20,Pin_20*%
%TO.N,/5V OUT*%
X139015000Y-108700000D03*
%TO.P,J1,21,Pin_21*%
%TO.N,/EXT_LOAD1_OUT*%
X136475000Y-106160000D03*
%TO.P,J1,22,Pin_22*%
%TO.N,/HV*%
X136475000Y-108700000D03*
%TO.P,J1,23,Pin_23*%
%TO.N,GND*%
X133935000Y-106160000D03*
%TO.P,J1,24,Pin_24*%
%TO.N,/MOTOR3_CTRL1*%
X133935000Y-108700000D03*
%TO.P,J1,25,Pin_25*%
%TO.N,/CTRL_EXT_LOAD1*%
X131395000Y-106160000D03*
%TO.P,J1,26,Pin_26*%
%TO.N,/MOTOR3_CTRL2*%
X131395000Y-108700000D03*
%TO.P,J1,27,Pin_27*%
%TO.N,/MOTOR3_A_OUT*%
X128855000Y-106160000D03*
%TO.P,J1,28,Pin_28*%
%TO.N,/MOTOR1_CTRL1*%
X128855000Y-108700000D03*
%TO.P,J1,29,Pin_29*%
%TO.N,/MOTOR3_B_OUT*%
X126315000Y-106160000D03*
%TO.P,J1,30,Pin_30*%
%TO.N,/MOTOR1_CTRL2*%
X126315000Y-108700000D03*
%TO.P,J1,31,Pin_31*%
%TO.N,/MOTOR1_B_OUT*%
X123775000Y-106160000D03*
%TO.P,J1,32,Pin_32*%
%TO.N,/MOTOR1_A_OUT*%
X123775000Y-108700000D03*
%TD*%
M02*
