M48
; DRILL file {KiCad 9.0.0} date 2025-04-05T14:31:51+0200
; FORMAT={-:-/ absolute / inch / decimal}
; #@! TF.CreationDate,2025-04-05T14:31:51+02:00
; #@! TF.GenerationSoftware,Kicad,Pcbnew,9.0.0
; #@! TF.FileFunction,Plated,1,2,PTH
FMAT,2
INCH
; #@! TA.AperFunction,Plated,PTH,ComponentDrill
T1C0.0010
; #@! TA.AperFunction,Plated,PTH,ViaDrill
T2C0.0118
; #@! TA.AperFunction,Plated,PTH,ComponentDrill
T3C0.0295
; #@! TA.AperFunction,Plated,PTH,ComponentDrill
T4C0.0394
; #@! TA.AperFunction,Plated,PTH,ComponentDrill
T5C0.1260
%
G90
G05
T1
X6.4899Y-2.3572
X6.4899Y-2.1938
X6.8301Y-2.1938
X6.8301Y-2.3572
T2
X4.38Y-3.45
X4.3814Y-2.4614
X4.44Y-3.26
X4.44Y-3.79
X4.5Y-2.48
X4.505Y-3.215
X4.545Y-2.405
X4.57Y-3.98
X4.61Y-2.625
X4.61Y-2.705
X4.63Y-3.975
X4.645Y-3.57
X4.65Y-3.505
X4.655Y-3.125
X4.66Y-2.74
X4.695Y-2.815
X4.72Y-2.88
X4.72Y-3.445
X4.735Y-2.76
X4.75Y-4.13
X4.825Y-4.03
X4.83Y-3.895
X4.85Y-3.395
X5.02Y-3.74
X5.07Y-3.705
X5.15Y-3.955
X5.1732Y-3.3386
X5.255Y-2.545
X5.275Y-4.055
X5.2953Y-2.8701
X5.42Y-2.705
X5.42Y-4.02
X5.46Y-2.62
X5.505Y-4.07
X5.92Y-3.51
X5.94Y-3.275
X6.0Y-3.545
X6.005Y-3.465
X6.015Y-3.815
X6.015Y-4.065
X6.075Y-3.795
X6.075Y-4.07
X6.1024Y-2.5906
X6.14Y-3.44
X6.1575Y-2.8189
X6.189Y-3.2559
X6.21Y-3.4
X6.24Y-2.74
X6.26Y-3.605
X6.395Y-2.49
X6.6181Y-2.9685
X6.62Y-2.545
X6.675Y-3.195
X6.69Y-2.785
X6.69Y-2.89
X6.6925Y-2.7275
X6.8611Y-3.3861
X6.915Y-2.49
X7.0Y-2.875
X7.04Y-3.845
X7.08Y-2.87
X7.12Y-3.77
T3
X6.0156Y-2.2335
X6.0944Y-2.2335
T4
X4.873Y-4.1795
X4.873Y-4.2795
X4.973Y-4.1795
X4.973Y-4.2795
X5.073Y-4.1795
X5.073Y-4.2795
X5.173Y-4.1795
X5.173Y-4.2795
X5.273Y-4.1795
X5.273Y-4.2795
X5.373Y-4.1795
X5.373Y-4.2795
X5.473Y-4.1795
X5.473Y-4.2795
X5.573Y-4.1795
X5.573Y-4.2795
X5.673Y-4.1795
X5.673Y-4.2795
X5.773Y-4.1795
X5.773Y-4.2795
X5.873Y-4.1795
X5.873Y-4.2795
X5.973Y-4.1795
X5.973Y-4.2795
X6.073Y-4.1795
X6.073Y-4.2795
X6.173Y-4.1795
X6.173Y-4.2795
X6.273Y-4.1795
X6.273Y-4.2795
X6.373Y-4.1795
X6.373Y-4.2795
T5
X5.6093Y-2.4193
X5.6132Y-2.813
X5.6132Y-3.2047
T4
G00X4.89Y-2.2914
M15
G01X4.89Y-2.3386
M16
G05
G00X5.075Y-2.2914
M15
G01X5.075Y-2.3386
M16
G05
G00X5.26Y-2.2914
M15
G01X5.26Y-2.3386
M16
G05
M30
