%TF.GenerationSoftware,KiCad,Pcbnew,9.0.0*%
%TF.CreationDate,2025-04-05T14:31:51+02:00*%
%TF.ProjectId,EEE3088F_PCB_Project,45454533-3038-4384-965f-5043425f5072,rev?*%
%TF.SameCoordinates,Original*%
%TF.FileFunction,Copper,L1,Top*%
%TF.FilePolarity,Positive*%
%FSLAX46Y46*%
G04 Gerber Fmt 4.6, Leading zero omitted, Abs format (unit mm)*
G04 Created by KiCad (PCBNEW 9.0.0) date 2025-04-05 14:31:51*
%MOMM*%
%LPD*%
G01*
G04 APERTURE LIST*
G04 Aperture macros list*
%AMRoundRect*
0 Rectangle with rounded corners*
0 $1 Rounding radius*
0 $2 $3 $4 $5 $6 $7 $8 $9 X,Y pos of 4 corners*
0 Add a 4 corners polygon primitive as box body*
4,1,4,$2,$3,$4,$5,$6,$7,$8,$9,$2,$3,0*
0 Add four circle primitives for the rounded corners*
1,1,$1+$1,$2,$3*
1,1,$1+$1,$4,$5*
1,1,$1+$1,$6,$7*
1,1,$1+$1,$8,$9*
0 Add four rect primitives between the rounded corners*
20,1,$1+$1,$2,$3,$4,$5,0*
20,1,$1+$1,$4,$5,$6,$7,0*
20,1,$1+$1,$6,$7,$8,$9,0*
20,1,$1+$1,$8,$9,$2,$3,0*%
G04 Aperture macros list end*
%TA.AperFunction,EtchedComponent*%
%ADD10C,0.000000*%
%TD*%
%TA.AperFunction,SMDPad,CuDef*%
%ADD11C,1.500000*%
%TD*%
%TA.AperFunction,SMDPad,CuDef*%
%ADD12R,1.820000X1.050000*%
%TD*%
%TA.AperFunction,SMDPad,CuDef*%
%ADD13R,1.420000X1.000000*%
%TD*%
%TA.AperFunction,SMDPad,CuDef*%
%ADD14R,0.540000X0.565700*%
%TD*%
%TA.AperFunction,SMDPad,CuDef*%
%ADD15R,1.020000X1.780000*%
%TD*%
%TA.AperFunction,SMDPad,CuDef*%
%ADD16R,0.990000X0.300000*%
%TD*%
%TA.AperFunction,SMDPad,CuDef*%
%ADD17R,0.300000X0.990000*%
%TD*%
%TA.AperFunction,SMDPad,CuDef*%
%ADD18R,3.150000X2.150000*%
%TD*%
%TA.AperFunction,SMDPad,CuDef*%
%ADD19R,1.050000X1.820000*%
%TD*%
%TA.AperFunction,SMDPad,CuDef*%
%ADD20R,1.720000X1.050000*%
%TD*%
%TA.AperFunction,SMDPad,CuDef*%
%ADD21R,0.450000X1.475000*%
%TD*%
%TA.AperFunction,SMDPad,CuDef*%
%ADD22R,0.940000X1.430000*%
%TD*%
%TA.AperFunction,SMDPad,CuDef*%
%ADD23R,1.390000X0.910000*%
%TD*%
%TA.AperFunction,SMDPad,CuDef*%
%ADD24R,0.568000X1.309599*%
%TD*%
%TA.AperFunction,ComponentPad*%
%ADD25C,5.600000*%
%TD*%
%TA.AperFunction,ComponentPad*%
%ADD26O,1.600000X3.000000*%
%TD*%
%TA.AperFunction,SMDPad,CuDef*%
%ADD27R,1.200000X0.600000*%
%TD*%
%TA.AperFunction,SMDPad,CuDef*%
%ADD28R,1.454899X0.558000*%
%TD*%
%TA.AperFunction,SMDPad,CuDef*%
%ADD29R,2.311400X1.742199*%
%TD*%
%TA.AperFunction,SMDPad,CuDef*%
%ADD30R,1.485000X1.728000*%
%TD*%
%TA.AperFunction,SMDPad,CuDef*%
%ADD31R,1.050000X1.720000*%
%TD*%
%TA.AperFunction,ComponentPad*%
%ADD32RoundRect,0.250000X-0.350000X-0.625000X0.350000X-0.625000X0.350000X0.625000X-0.350000X0.625000X0*%
%TD*%
%TA.AperFunction,ComponentPad*%
%ADD33O,1.200000X1.750000*%
%TD*%
%TA.AperFunction,SMDPad,CuDef*%
%ADD34R,1.030000X1.750000*%
%TD*%
%TA.AperFunction,SMDPad,CuDef*%
%ADD35R,0.350000X0.500000*%
%TD*%
%TA.AperFunction,SMDPad,CuDef*%
%ADD36R,1.600000X1.000000*%
%TD*%
%TA.AperFunction,SMDPad,CuDef*%
%ADD37R,1.399500X1.000000*%
%TD*%
%TA.AperFunction,SMDPad,CuDef*%
%ADD38R,1.377000X1.132500*%
%TD*%
%TA.AperFunction,SMDPad,CuDef*%
%ADD39R,0.940000X0.730000*%
%TD*%
%TA.AperFunction,SMDPad,CuDef*%
%ADD40R,1.742199X2.311400*%
%TD*%
%TA.AperFunction,SMDPad,CuDef*%
%ADD41R,1.000000X1.420000*%
%TD*%
%TA.AperFunction,SMDPad,CuDef*%
%ADD42R,0.800000X0.800000*%
%TD*%
%TA.AperFunction,SMDPad,CuDef*%
%ADD43R,0.700000X0.300000*%
%TD*%
%TA.AperFunction,SMDPad,CuDef*%
%ADD44R,1.000000X1.700000*%
%TD*%
%TA.AperFunction,SMDPad,CuDef*%
%ADD45R,0.127000X0.127000*%
%TD*%
%TA.AperFunction,SMDPad,CuDef*%
%ADD46R,0.304800X1.143000*%
%TD*%
%TA.AperFunction,ComponentPad*%
%ADD47O,1.117600X2.209800*%
%TD*%
%TA.AperFunction,ComponentPad*%
%ADD48O,1.117600X1.905000*%
%TD*%
%TA.AperFunction,SMDPad,CuDef*%
%ADD49R,1.075000X0.450000*%
%TD*%
%TA.AperFunction,SMDPad,CuDef*%
%ADD50R,0.806500X0.864000*%
%TD*%
%TA.AperFunction,ComponentPad*%
%ADD51R,1.700000X1.700000*%
%TD*%
%TA.AperFunction,ComponentPad*%
%ADD52O,1.700000X1.700000*%
%TD*%
%TA.AperFunction,ViaPad*%
%ADD53C,0.600000*%
%TD*%
%TA.AperFunction,Conductor*%
%ADD54C,0.200000*%
%TD*%
%TA.AperFunction,Conductor*%
%ADD55C,0.500000*%
%TD*%
G04 APERTURE END LIST*
D10*
%TA.AperFunction,EtchedComponent*%
%TO.C,J2*%
G36*
X166260907Y-55702200D02*
G01*
X165651307Y-55702200D01*
X165651307Y-54559200D01*
X166260907Y-54559200D01*
X166260907Y-55702200D01*
G37*
%TD.AperFunction*%
%TA.AperFunction,EtchedComponent*%
G36*
X167065833Y-55702200D02*
G01*
X166456233Y-55702200D01*
X166456233Y-54559200D01*
X167065833Y-54559200D01*
X167065833Y-55702200D01*
G37*
%TD.AperFunction*%
%TA.AperFunction,EtchedComponent*%
G36*
X171871767Y-55702200D02*
G01*
X171262167Y-55702200D01*
X171262167Y-54559200D01*
X171871767Y-54559200D01*
X171871767Y-55702200D01*
G37*
%TD.AperFunction*%
%TA.AperFunction,EtchedComponent*%
G36*
X172676693Y-55702200D02*
G01*
X172067093Y-55702200D01*
X172067093Y-54559200D01*
X172676693Y-54559200D01*
X172676693Y-55702200D01*
G37*
%TD.AperFunction*%
%TD*%
D11*
%TO.P,TP39,1,1*%
%TO.N,/MOTOR4_A_OUT*%
X115697000Y-77978000D03*
%TD*%
D12*
%TO.P,C11,1,1*%
%TO.N,GND*%
X132650000Y-82350000D03*
%TO.P,C11,2,2*%
%TO.N,/PWR SWITCH OUT*%
X132650000Y-79570000D03*
%TD*%
D11*
%TO.P,TP21,1,1*%
%TO.N,GND*%
X122682000Y-72771000D03*
%TD*%
%TO.P,TP4,1,1*%
%TO.N,/CC1*%
X160655000Y-60198000D03*
%TD*%
D12*
%TO.P,C13,1,1*%
%TO.N,Net-(IC1-VINT)*%
X170727000Y-67645000D03*
%TO.P,C13,2,2*%
%TO.N,GND*%
X170727000Y-64865000D03*
%TD*%
D11*
%TO.P,TP37,1,1*%
%TO.N,/MOTOR4_B_OUT*%
X111413000Y-79858000D03*
%TD*%
D13*
%TO.P,R21,1*%
%TO.N,Net-(IC3-FB)*%
X125550000Y-83035000D03*
%TO.P,R21,2*%
%TO.N,GND*%
X125550000Y-81165000D03*
%TD*%
D11*
%TO.P,TP31,1,1*%
%TO.N,/I2C1_SDA*%
X120142000Y-97155000D03*
%TD*%
%TO.P,TP25,1,1*%
%TO.N,Net-(Q1-G)*%
X135509000Y-70104000D03*
%TD*%
D14*
%TO.P,R16,1,1*%
%TO.N,/PROG*%
X162190000Y-88979400D03*
%TO.P,R16,2,2*%
%TO.N,GND*%
X162190000Y-88113800D03*
%TD*%
D11*
%TO.P,TP22,1,1*%
%TO.N,GND*%
X151384000Y-92710000D03*
%TD*%
%TO.P,TP8,1,1*%
%TO.N,/PWR SWITCH OUT*%
X118405000Y-57351000D03*
%TD*%
%TO.P,TP34,1,1*%
%TO.N,/MOTOR1_A_OUT*%
X168783000Y-78423000D03*
%TD*%
D15*
%TO.P,C19,1,1*%
%TO.N,Net-(IC7-SW_1)*%
X138960000Y-98960000D03*
%TO.P,C19,2,2*%
%TO.N,Net-(IC7-BOOT)*%
X141720000Y-98960000D03*
%TD*%
D11*
%TO.P,TP23,1,1*%
%TO.N,/CTRL_EXT_LOAD1*%
X135382000Y-67056000D03*
%TD*%
D16*
%TO.P,IC7,1,VCC*%
%TO.N,Net-(IC7-VCC)*%
X138205000Y-95815000D03*
D17*
%TO.P,IC7,2,EN*%
%TO.N,/PWR SWITCH OUT*%
X138655000Y-96765000D03*
%TO.P,IC7,3,FSW*%
%TO.N,Net-(IC7-FSW)*%
X139155000Y-96765000D03*
%TO.P,IC7,4,SW_1*%
%TO.N,Net-(IC7-SW_1)*%
X139655000Y-96765000D03*
%TO.P,IC7,5,SW_2*%
%TO.N,unconnected-(IC7-SW_2-Pad5)*%
X140155000Y-96765000D03*
%TO.P,IC7,6,SW_3*%
%TO.N,unconnected-(IC7-SW_3-Pad6)*%
X140655000Y-96765000D03*
%TO.P,IC7,7,SW_4*%
%TO.N,unconnected-(IC7-SW_4-Pad7)*%
X141155000Y-96765000D03*
%TO.P,IC7,8,BOOT*%
%TO.N,Net-(IC7-BOOT)*%
X141655000Y-96765000D03*
%TO.P,IC7,9,VBN*%
%TO.N,/PWR SWITCH OUT*%
X142155000Y-96765000D03*
D16*
%TO.P,IC7,10,SS*%
%TO.N,Net-(IC7-SS)*%
X142605000Y-95815000D03*
%TO.P,IC7,11,NC_1*%
%TO.N,GND*%
X142605000Y-94315000D03*
D17*
%TO.P,IC7,12,NC_2*%
X142155000Y-93365000D03*
%TO.P,IC7,13,MODE*%
X141655000Y-93365000D03*
%TO.P,IC7,14,VOUT_1*%
%TO.N,/5V OUT*%
X141155000Y-93365000D03*
%TO.P,IC7,15,VOUT_2*%
%TO.N,unconnected-(IC7-VOUT_2-Pad15)*%
X140655000Y-93365000D03*
%TO.P,IC7,16,VOUT_3*%
%TO.N,unconnected-(IC7-VOUT_3-Pad16)*%
X140155000Y-93365000D03*
%TO.P,IC7,17,FB*%
%TO.N,Net-(IC7-FB)*%
X139655000Y-93365000D03*
%TO.P,IC7,18,COMP*%
%TO.N,Net-(IC7-COMP)*%
X139155000Y-93365000D03*
%TO.P,IC7,19,ILIM*%
%TO.N,Net-(IC7-ILIM)*%
X138655000Y-93365000D03*
D16*
%TO.P,IC7,20,AGND*%
%TO.N,GND*%
X138205000Y-94315000D03*
D18*
%TO.P,IC7,21,PGND*%
X140405000Y-95065000D03*
%TD*%
D19*
%TO.P,C24,1,1*%
%TO.N,/HV*%
X170904652Y-89255600D03*
%TO.P,C24,2,2*%
%TO.N,GND*%
X168124652Y-89255600D03*
%TD*%
D11*
%TO.P,TP18,1,1*%
%TO.N,/3V3 OUT*%
X125500000Y-88100000D03*
%TD*%
D20*
%TO.P,R7,1*%
%TO.N,GND*%
X172339000Y-82423000D03*
%TO.P,R7,2*%
%TO.N,Net-(IC1-AISEN)*%
X172339000Y-79503000D03*
%TD*%
D14*
%TO.P,R27,1,1*%
%TO.N,Net-(Q3-S)*%
X165746000Y-88979400D03*
%TO.P,R27,2,2*%
%TO.N,GND*%
X165746000Y-88113800D03*
%TD*%
D20*
%TO.P,R9,1*%
%TO.N,GND*%
X179451000Y-82169000D03*
%TO.P,R9,2*%
%TO.N,Net-(IC1-BISEN)*%
X179451000Y-79249000D03*
%TD*%
D21*
%TO.P,IC1,1,NSLEEP*%
%TO.N,/3V3 OUT*%
X171652000Y-76043000D03*
%TO.P,IC1,2,AOUT1*%
%TO.N,/MOTOR1_A_OUT*%
X172302000Y-76043000D03*
%TO.P,IC1,3,AISEN*%
%TO.N,Net-(IC1-AISEN)*%
X172952000Y-76043000D03*
%TO.P,IC1,4,AOUT2*%
%TO.N,/MOTOR1_B_OUT*%
X173602000Y-76043000D03*
%TO.P,IC1,5,BOUT2*%
%TO.N,/MOTOR2_B_OUT*%
X174252000Y-76043000D03*
%TO.P,IC1,6,BISEN*%
%TO.N,Net-(IC1-BISEN)*%
X174902000Y-76043000D03*
%TO.P,IC1,7,BOUT1*%
%TO.N,/MOTOR2_A_OUT*%
X175552000Y-76043000D03*
%TO.P,IC1,8,NFAULT*%
%TO.N,unconnected-(IC1-NFAULT-Pad8)*%
X176202000Y-76043000D03*
%TO.P,IC1,9,BIN1*%
%TO.N,/MOTOR2_CTRL1*%
X176202000Y-70167000D03*
%TO.P,IC1,10,BIN2*%
%TO.N,/MOTOR2_CTRL2*%
X175552000Y-70167000D03*
%TO.P,IC1,11,VCP*%
%TO.N,Net-(IC1-VCP)*%
X174902000Y-70167000D03*
%TO.P,IC1,12,VM*%
%TO.N,/5V OUT*%
X174252000Y-70167000D03*
%TO.P,IC1,13,GND*%
%TO.N,GND*%
X173602000Y-70167000D03*
%TO.P,IC1,14,VINT*%
%TO.N,Net-(IC1-VINT)*%
X172952000Y-70167000D03*
%TO.P,IC1,15,AIN2*%
%TO.N,/MOTOR1_CTRL2*%
X172302000Y-70167000D03*
%TO.P,IC1,16,AIN1*%
%TO.N,/MOTOR1_CTRL1*%
X171652000Y-70167000D03*
%TD*%
D22*
%TO.P,C21,1,1*%
%TO.N,/5V OUT*%
X147415000Y-90565000D03*
%TO.P,C21,2,2*%
%TO.N,GND*%
X149055000Y-90565000D03*
%TD*%
D15*
%TO.P,C18,1,1*%
%TO.N,GND*%
X130827000Y-95504000D03*
%TO.P,C18,2,2*%
%TO.N,/PWR SWITCH OUT*%
X133587000Y-95504000D03*
%TD*%
D23*
%TO.P,C5,1,1*%
%TO.N,Net-(IC1-VCP)*%
X176277000Y-67705000D03*
%TO.P,C5,2,2*%
%TO.N,/5V OUT*%
X176277000Y-66065000D03*
%TD*%
D24*
%TO.P,Q3,1,G*%
%TO.N,/FAST_CHARGE_CTRL*%
X163814651Y-93878700D03*
%TO.P,Q3,2,S*%
%TO.N,Net-(Q3-S)*%
X165714653Y-93878700D03*
%TO.P,Q3,3,D*%
%TO.N,/PROG*%
X164764652Y-91848300D03*
%TD*%
D11*
%TO.P,TP38,1,1*%
%TO.N,/MOTOR3_B_OUT*%
X107713000Y-79908000D03*
%TD*%
D22*
%TO.P,C22,1,1*%
%TO.N,/5V OUT*%
X147415000Y-93215000D03*
%TO.P,C22,2,2*%
%TO.N,GND*%
X149055000Y-93215000D03*
%TD*%
D20*
%TO.P,R3,1*%
%TO.N,/BATTERY*%
X119888000Y-91631000D03*
%TO.P,R3,2*%
%TO.N,/I2C1_SDA*%
X119888000Y-94551000D03*
%TD*%
D19*
%TO.P,C20,1,1*%
%TO.N,/PWR SWITCH OUT*%
X147315000Y-96015000D03*
%TO.P,C20,2,2*%
%TO.N,GND*%
X150095000Y-96015000D03*
%TD*%
D12*
%TO.P,C2,1,1*%
%TO.N,GND*%
X133096000Y-90177000D03*
%TO.P,C2,2,2*%
%TO.N,Net-(IC7-VCC)*%
X133096000Y-92957000D03*
%TD*%
D11*
%TO.P,TP36,1,1*%
%TO.N,/MOTOR1_B_OUT*%
X175895000Y-82487000D03*
%TD*%
D25*
%TO.P,H2,1*%
%TO.N,GND*%
X142575000Y-71450000D03*
%TD*%
D26*
%TO.P,SW1,1,1*%
%TO.N,/PWR SWITCH OUT*%
X124205000Y-58801000D03*
%TO.P,SW1,2,2*%
%TO.N,/PWR SWITCH IN*%
X128905000Y-58801000D03*
%TO.P,SW1,3,3*%
%TO.N,GND*%
X133605000Y-58801000D03*
%TD*%
D27*
%TO.P,Q6,1,G*%
%TO.N,Net-(Q2-D)*%
X151296000Y-73294000D03*
%TO.P,Q6,2,S*%
%TO.N,/5V OUT*%
X151296000Y-75194000D03*
%TO.P,Q6,3,D*%
%TO.N,/EXT_LOAD2_OUT*%
X153796000Y-74244000D03*
%TD*%
D11*
%TO.P,TP28,1,1*%
%TO.N,/EXT_LOAD2_OUT*%
X154138000Y-70796000D03*
%TD*%
%TO.P,TP5,1,1*%
%TO.N,/CC2*%
X177800000Y-60071000D03*
%TD*%
D28*
%TO.P,U2,1,VCC*%
%TO.N,/HV*%
X168293304Y-92300600D03*
%TO.P,U2,2,PROG*%
%TO.N,/PROG*%
X168293304Y-93570600D03*
%TO.P,U2,3,NSTDBY*%
%TO.N,Net-(LED1-K)*%
X168293304Y-94840600D03*
%TO.P,U2,4,NCHRG*%
%TO.N,Net-(LED2-K)*%
X168293304Y-96110600D03*
%TO.P,U2,5,TS*%
%TO.N,/HV*%
X173736000Y-96110600D03*
%TO.P,U2,6,BAT*%
%TO.N,GND*%
X173736000Y-94840600D03*
%TO.P,U2,7,GND*%
X173736000Y-93570600D03*
%TO.P,U2,8,LX*%
%TO.N,Net-(U2-LX)*%
X173736000Y-92300600D03*
%TD*%
D29*
%TO.P,L4,1,1*%
%TO.N,/PWR SWITCH OUT*%
X145674000Y-98711201D03*
%TO.P,L4,2,2*%
%TO.N,Net-(IC7-SW_1)*%
X145674000Y-102002799D03*
%TD*%
D11*
%TO.P,TP20,1,1*%
%TO.N,Net-(IC3-FB)*%
X128400000Y-85700000D03*
%TD*%
D12*
%TO.P,C10,1,1*%
%TO.N,/5V OUT*%
X111288000Y-67270000D03*
%TO.P,C10,2,2*%
%TO.N,GND*%
X111288000Y-64490000D03*
%TD*%
D11*
%TO.P,TP6,1,1*%
%TO.N,/D+*%
X177800000Y-56261000D03*
%TD*%
%TO.P,TP30,1,1*%
%TO.N,/BATTERY*%
X106299000Y-93218000D03*
%TD*%
D30*
%TO.P,C23,1,1*%
%TO.N,GND*%
X166751000Y-69342000D03*
%TO.P,C23,2,2*%
%TO.N,/HV*%
X163565800Y-69342000D03*
%TD*%
D13*
%TO.P,R12,1*%
%TO.N,Net-(R12-Pad1)*%
X136144000Y-96982000D03*
%TO.P,R12,2*%
%TO.N,Net-(IC7-FSW)*%
X136144000Y-98852000D03*
%TD*%
D21*
%TO.P,IC2,1,NSLEEP*%
%TO.N,/3V3 OUT*%
X108713000Y-76108000D03*
%TO.P,IC2,2,AOUT1*%
%TO.N,/MOTOR3_A_OUT*%
X109363000Y-76108000D03*
%TO.P,IC2,3,AISEN*%
%TO.N,Net-(IC2-AISEN)*%
X110013000Y-76108000D03*
%TO.P,IC2,4,AOUT2*%
%TO.N,/MOTOR3_B_OUT*%
X110663000Y-76108000D03*
%TO.P,IC2,5,BOUT2*%
%TO.N,/MOTOR4_B_OUT*%
X111313000Y-76108000D03*
%TO.P,IC2,6,BISEN*%
%TO.N,Net-(IC2-BISEN)*%
X111963000Y-76108000D03*
%TO.P,IC2,7,BOUT1*%
%TO.N,/MOTOR4_A_OUT*%
X112613000Y-76108000D03*
%TO.P,IC2,8,NFAULT*%
%TO.N,unconnected-(IC2-NFAULT-Pad8)*%
X113263000Y-76108000D03*
%TO.P,IC2,9,BIN1*%
%TO.N,/MOTOR4_CTRL1*%
X113263000Y-70232000D03*
%TO.P,IC2,10,BIN2*%
%TO.N,/MOTOR4_CTRL2*%
X112613000Y-70232000D03*
%TO.P,IC2,11,VCP*%
%TO.N,Net-(IC2-VCP)*%
X111963000Y-70232000D03*
%TO.P,IC2,12,VM*%
%TO.N,/5V OUT*%
X111313000Y-70232000D03*
%TO.P,IC2,13,GND*%
%TO.N,GND*%
X110663000Y-70232000D03*
%TO.P,IC2,14,VINT*%
%TO.N,Net-(IC2-VINT)*%
X110013000Y-70232000D03*
%TO.P,IC2,15,AIN2*%
%TO.N,/MOTOR3_CTRL2*%
X109363000Y-70232000D03*
%TO.P,IC2,16,AIN1*%
%TO.N,/MOTOR3_CTRL1*%
X108713000Y-70232000D03*
%TD*%
D31*
%TO.P,R6,1*%
%TO.N,Net-(IC2-AISEN)*%
X105653000Y-85140000D03*
%TO.P,R6,2*%
%TO.N,GND*%
X108573000Y-85140000D03*
%TD*%
D32*
%TO.P,J3,1,Pin_1*%
%TO.N,GND*%
X152797000Y-56732000D03*
D33*
%TO.P,J3,2,Pin_2*%
%TO.N,/BATTERY*%
X154797000Y-56732000D03*
%TD*%
D31*
%TO.P,R4,1*%
%TO.N,Net-(Q1-D)*%
X126060000Y-69650000D03*
%TO.P,R4,2*%
%TO.N,/5V OUT*%
X123140000Y-69650000D03*
%TD*%
D11*
%TO.P,TP12,1,1*%
%TO.N,/BATTERY*%
X106426000Y-89535000D03*
%TD*%
%TO.P,TP32,1,1*%
%TO.N,/I2C1_SCL*%
X110363000Y-95885000D03*
%TD*%
D31*
%TO.P,R15,1*%
%TO.N,Net-(Q2-G)*%
X159218000Y-79079000D03*
%TO.P,R15,2*%
%TO.N,/CTRL_EXT_LOAD2*%
X156298000Y-79079000D03*
%TD*%
D12*
%TO.P,C9,1,1*%
%TO.N,/5V OUT*%
X173577000Y-64815000D03*
%TO.P,C9,2,2*%
%TO.N,GND*%
X173577000Y-67595000D03*
%TD*%
D14*
%TO.P,R28,1,1*%
%TO.N,GND*%
X161174000Y-91923800D03*
%TO.P,R28,2,2*%
%TO.N,/BATTERY*%
X161174000Y-92789400D03*
%TD*%
D34*
%TO.P,C16,1,1*%
%TO.N,GND*%
X138183000Y-87630000D03*
%TO.P,C16,2,2*%
%TO.N,Net-(C16-Pad2)*%
X140963000Y-87630000D03*
%TD*%
D31*
%TO.P,R5,1*%
%TO.N,Net-(Q2-D)*%
X153800000Y-77800000D03*
%TO.P,R5,2*%
%TO.N,/5V OUT*%
X150880000Y-77800000D03*
%TD*%
D13*
%TO.P,R25,1*%
%TO.N,Net-(R12-Pad1)*%
X133350000Y-98252000D03*
%TO.P,R25,2*%
%TO.N,Net-(IC7-SW_1)*%
X133350000Y-100122000D03*
%TD*%
D11*
%TO.P,TP29,1,1*%
%TO.N,/PWR SWITCH IN*%
X112395000Y-98425000D03*
%TD*%
%TO.P,TP26,1,1*%
%TO.N,Net-(Q2-G)*%
X162076000Y-76031000D03*
%TD*%
D31*
%TO.P,R14,1*%
%TO.N,Net-(Q1-G)*%
X128740000Y-69750000D03*
%TO.P,R14,2*%
%TO.N,/CTRL_EXT_LOAD1*%
X131660000Y-69750000D03*
%TD*%
D11*
%TO.P,TP24,1,1*%
%TO.N,/CTRL_EXT_LOAD2*%
X161671000Y-81026000D03*
%TD*%
D27*
%TO.P,Q5,1,G*%
%TO.N,Net-(Q1-D)*%
X126000000Y-66700000D03*
%TO.P,Q5,2,S*%
%TO.N,/5V OUT*%
X126000000Y-64800000D03*
%TO.P,Q5,3,D*%
%TO.N,/EXT_LOAD1_OUT*%
X123500000Y-65750000D03*
%TD*%
D11*
%TO.P,TP14,1,1*%
%TO.N,/PROG*%
X161174000Y-100230600D03*
%TD*%
%TO.P,TP7,1,1*%
%TO.N,/D-*%
X160655000Y-56261000D03*
%TD*%
D12*
%TO.P,C14,1,1*%
%TO.N,Net-(IC2-VINT)*%
X108238000Y-67270000D03*
%TO.P,C14,2,2*%
%TO.N,GND*%
X108238000Y-64490000D03*
%TD*%
D20*
%TO.P,R20,1*%
%TO.N,/BATTERY*%
X110419000Y-89773000D03*
%TO.P,R20,2*%
%TO.N,/I2C1_SCL*%
X110419000Y-92693000D03*
%TD*%
D11*
%TO.P,TP11,1,1*%
%TO.N,GND*%
X168032000Y-85752600D03*
%TD*%
D35*
%TO.P,U1,1,CC1*%
%TO.N,/CC1*%
X162476400Y-66785900D03*
%TO.P,U1,2,VUSB*%
%TO.N,/HV*%
X163126400Y-66785900D03*
%TO.P,U1,3,VSET*%
%TO.N,Net-(U1-VSET)*%
X163776400Y-66785900D03*
%TO.P,U1,4,D+*%
%TO.N,/D+*%
X163776400Y-64785900D03*
%TO.P,U1,5,D-*%
%TO.N,/D-*%
X163126400Y-64785900D03*
%TO.P,U1,6,CC2*%
%TO.N,/CC2*%
X162476400Y-64785900D03*
D36*
%TO.P,U1,7,GND*%
%TO.N,GND*%
X163126400Y-65785900D03*
%TD*%
D11*
%TO.P,TP16,1,1*%
%TO.N,/PWR SWITCH OUT*%
X150591000Y-99715000D03*
%TD*%
D31*
%TO.P,R19,1*%
%TO.N,/PWR SWITCH IN*%
X116268000Y-89408000D03*
%TO.P,R19,2*%
%TO.N,/BATTERY*%
X113348000Y-89408000D03*
%TD*%
D11*
%TO.P,TP17,1,1*%
%TO.N,/5V OUT*%
X152146000Y-84836000D03*
%TD*%
D37*
%TO.P,LED1,1,A*%
%TO.N,Net-(LED1-A)*%
X164528652Y-99521500D03*
%TO.P,LED1,2,K*%
%TO.N,Net-(LED1-K)*%
X164528652Y-97420900D03*
%TD*%
D11*
%TO.P,TP40,1,1*%
%TO.N,/MOTOR3_A_OUT*%
X105663000Y-76808000D03*
%TD*%
%TO.P,TP15,1,1*%
%TO.N,/PWR SWITCH OUT*%
X132950000Y-76750000D03*
%TD*%
D25*
%TO.P,H3,1*%
%TO.N,GND*%
X142475000Y-61450000D03*
%TD*%
D23*
%TO.P,C6,1,1*%
%TO.N,Net-(IC2-VCP)*%
X114238000Y-67350000D03*
%TO.P,C6,2,2*%
%TO.N,/5V OUT*%
X114238000Y-65710000D03*
%TD*%
D27*
%TO.P,Q2,1,G*%
%TO.N,Net-(Q2-G)*%
X159218000Y-76515000D03*
%TO.P,Q2,2,S*%
%TO.N,GND*%
X159218000Y-74615000D03*
%TO.P,Q2,3,D*%
%TO.N,Net-(Q2-D)*%
X156718000Y-75565000D03*
%TD*%
D38*
%TO.P,L2,1,1*%
%TO.N,Net-(U2-LX)*%
X176668000Y-90882400D03*
%TO.P,L2,2,2*%
%TO.N,GND*%
X176668000Y-92814800D03*
%TD*%
D25*
%TO.P,H1,1*%
%TO.N,GND*%
X142575000Y-81400000D03*
%TD*%
D39*
%TO.P,C15,1,1*%
%TO.N,GND*%
X145255000Y-93855000D03*
%TO.P,C15,2,2*%
%TO.N,Net-(IC7-SS)*%
X145255000Y-95275000D03*
%TD*%
D40*
%TO.P,L5,1,1*%
%TO.N,Net-(IC3-SW)*%
X126404201Y-77100000D03*
%TO.P,L5,2,2*%
%TO.N,/3V3 OUT*%
X129695799Y-77100000D03*
%TD*%
D41*
%TO.P,R18,1*%
%TO.N,Net-(R17-Pad1)*%
X123663000Y-75946000D03*
%TO.P,R18,2*%
%TO.N,/3V3 OUT*%
X121793000Y-75946000D03*
%TD*%
D11*
%TO.P,TP3,1,1*%
%TO.N,/HV*%
X161036000Y-69596000D03*
%TD*%
D41*
%TO.P,R11,1*%
%TO.N,GND*%
X143120000Y-87965000D03*
%TO.P,R11,2*%
%TO.N,Net-(IC7-FB)*%
X144990000Y-87965000D03*
%TD*%
D42*
%TO.P,LED2,1,K*%
%TO.N,Net-(LED2-K)*%
X170217500Y-99440900D03*
%TO.P,LED2,2,A*%
%TO.N,Net-(LED1-A)*%
X168618500Y-99441100D03*
%TD*%
D11*
%TO.P,TP27,1,1*%
%TO.N,/EXT_LOAD1_OUT*%
X120300000Y-67500000D03*
%TD*%
D31*
%TO.P,R8,1*%
%TO.N,GND*%
X111253000Y-85090000D03*
%TO.P,R8,2*%
%TO.N,Net-(IC2-BISEN)*%
X114173000Y-85090000D03*
%TD*%
D22*
%TO.P,C17,1,1*%
%TO.N,/5V OUT*%
X147455000Y-87765000D03*
%TO.P,C17,2,2*%
%TO.N,GND*%
X149095000Y-87765000D03*
%TD*%
%TO.P,C3,1,1*%
%TO.N,/3V3 OUT*%
X128330000Y-72800000D03*
%TO.P,C3,2,2*%
%TO.N,GND*%
X129970000Y-72800000D03*
%TD*%
D43*
%TO.P,IC3,1,PGND*%
%TO.N,GND*%
X128000000Y-81000000D03*
%TO.P,IC3,2,SW*%
%TO.N,Net-(IC3-SW)*%
X128000000Y-81500000D03*
%TO.P,IC3,3,AGND*%
%TO.N,GND*%
X128000000Y-82000000D03*
%TO.P,IC3,4,FB*%
%TO.N,Net-(IC3-FB)*%
X128000000Y-82500000D03*
%TO.P,IC3,5,EN*%
%TO.N,/PWR SWITCH OUT*%
X130100000Y-82500000D03*
%TO.P,IC3,6,MODE*%
X130100000Y-82000000D03*
%TO.P,IC3,7,AVIN*%
X130100000Y-81500000D03*
%TO.P,IC3,8,PVIN*%
X130100000Y-81000000D03*
D44*
%TO.P,IC3,9,EP*%
%TO.N,GND*%
X129050000Y-81750000D03*
%TD*%
D11*
%TO.P,TP10,1,1*%
%TO.N,GND*%
X166370000Y-72898000D03*
%TD*%
%TO.P,TP33,1,1*%
%TO.N,/MOTOR2_A_OUT*%
X179451000Y-75375000D03*
%TD*%
D27*
%TO.P,Q1,1,G*%
%TO.N,Net-(Q1-G)*%
X131400000Y-66700000D03*
%TO.P,Q1,2,S*%
%TO.N,GND*%
X131400000Y-64800000D03*
%TO.P,Q1,3,D*%
%TO.N,Net-(Q1-D)*%
X128900000Y-65750000D03*
%TD*%
D41*
%TO.P,R26,1*%
%TO.N,Net-(IC7-COMP)*%
X138935000Y-90815000D03*
%TO.P,R26,2*%
%TO.N,Net-(C16-Pad2)*%
X140805000Y-90815000D03*
%TD*%
D11*
%TO.P,TP13,1,1*%
%TO.N,/HV*%
X171842000Y-86006600D03*
%TD*%
D20*
%TO.P,R10,1*%
%TO.N,GND*%
X135763000Y-88075000D03*
%TO.P,R10,2*%
%TO.N,Net-(IC7-ILIM)*%
X135763000Y-90995000D03*
%TD*%
D45*
%TO.P,J2,A1,GND*%
%TO.N,unconnected-(J2-GND-PadA1)*%
X165803707Y-55130700D03*
%TO.P,J2,A4,VBUS*%
%TO.N,unconnected-(J2-VBUS-PadA4)*%
X166608633Y-55130700D03*
D46*
%TO.P,J2,A5,CC1*%
%TO.N,/CC1*%
X167913685Y-55130700D03*
%TO.P,J2,A6,DP1*%
%TO.N,/D+*%
X168913937Y-55130700D03*
%TO.P,J2,A7,DN1*%
%TO.N,/D-*%
X169414063Y-55130700D03*
%TO.P,J2,A8,SBU1*%
%TO.N,unconnected-(J2-SBU1-PadA8)*%
X167413559Y-55130700D03*
D45*
%TO.P,J2,A9,VBUS*%
%TO.N,unconnected-(J2-VBUS-PadA9)*%
X171719367Y-55130700D03*
%TO.P,J2,A12,GND*%
%TO.N,unconnected-(J2-GND-PadA12)*%
X172524293Y-55130700D03*
%TO.P,J2,B1,GND*%
%TO.N,GND*%
X172219493Y-55130700D03*
%TO.P,J2,B4,VBUS*%
%TO.N,/HV*%
X171414567Y-55130700D03*
D46*
%TO.P,J2,B5,CC2*%
%TO.N,/CC2*%
X170914441Y-55130700D03*
%TO.P,J2,B6,DP2*%
%TO.N,/D+*%
X169914189Y-55130700D03*
%TO.P,J2,B7,DN2*%
%TO.N,/D-*%
X168413811Y-55130700D03*
%TO.P,J2,B8,SBU2*%
%TO.N,unconnected-(J2-SBU2-PadB8)*%
X170414315Y-55130700D03*
D45*
%TO.P,J2,B9,VBUS*%
%TO.N,/HV*%
X166913433Y-55130700D03*
%TO.P,J2,B12,GND*%
%TO.N,GND*%
X166108507Y-55130700D03*
D47*
%TO.P,J2,S1,SHELL_GND*%
X164843998Y-55721700D03*
%TO.P,J2,S2,SHELL_GND*%
X173484002Y-55721700D03*
D48*
%TO.P,J2,S3,SHELL_GND*%
X164843968Y-59871700D03*
%TO.P,J2,S4,SHELL_GND*%
X173484032Y-59871700D03*
%TD*%
D41*
%TO.P,R13,1*%
%TO.N,/5V OUT*%
X145025000Y-90765000D03*
%TO.P,R13,2*%
%TO.N,Net-(IC7-FB)*%
X143155000Y-90765000D03*
%TD*%
D49*
%TO.P,IC5,1,IN+*%
%TO.N,/BATTERY*%
X114120000Y-92685000D03*
%TO.P,IC5,2,IN-*%
%TO.N,/PWR SWITCH IN*%
X114120000Y-93335000D03*
%TO.P,IC5,3,GND*%
%TO.N,GND*%
X114120000Y-93985000D03*
%TO.P,IC5,4,VS*%
%TO.N,Net-(IC5-VS)*%
X114120000Y-94635000D03*
%TO.P,IC5,5,SCL*%
%TO.N,/I2C1_SCL*%
X116796000Y-94635000D03*
%TO.P,IC5,6,SDA*%
%TO.N,/I2C1_SDA*%
X116796000Y-93985000D03*
%TO.P,IC5,7,A0*%
%TO.N,GND*%
X116796000Y-93335000D03*
%TO.P,IC5,8,A1*%
%TO.N,/3V3 OUT*%
X116796000Y-92685000D03*
%TD*%
D14*
%TO.P,R30,1,1*%
%TO.N,Net-(LED1-A)*%
X164084000Y-101929200D03*
%TO.P,R30,2,2*%
%TO.N,/HV*%
X164084000Y-102794800D03*
%TD*%
D50*
%TO.P,R29,1,1*%
%TO.N,GND*%
X167113200Y-66294000D03*
%TO.P,R29,2,2*%
%TO.N,Net-(U1-VSET)*%
X165606400Y-66294000D03*
%TD*%
D11*
%TO.P,TP19,1,1*%
%TO.N,Net-(IC7-FB)*%
X147828000Y-85090000D03*
%TD*%
D39*
%TO.P,C1,1,1*%
%TO.N,Net-(IC3-FB)*%
X123190000Y-83110000D03*
%TO.P,C1,2,2*%
%TO.N,/3V3 OUT*%
X123190000Y-84530000D03*
%TD*%
D41*
%TO.P,R17,1*%
%TO.N,Net-(R17-Pad1)*%
X123744000Y-78994000D03*
%TO.P,R17,2*%
%TO.N,Net-(IC3-FB)*%
X121874000Y-78994000D03*
%TD*%
D11*
%TO.P,TP35,1,1*%
%TO.N,/MOTOR2_B_OUT*%
X175895000Y-79693000D03*
%TD*%
D15*
%TO.P,C7,1,1*%
%TO.N,/3V3 OUT*%
X117585000Y-96901000D03*
%TO.P,C7,2,2*%
%TO.N,Net-(IC5-VS)*%
X114825000Y-96901000D03*
%TD*%
D51*
%TO.P,J1,1,Pin_1*%
%TO.N,/MOTOR2_B_OUT*%
X161875000Y-106160000D03*
D52*
%TO.P,J1,2,Pin_2*%
%TO.N,/MOTOR2_A_OUT*%
X161875000Y-108700000D03*
%TO.P,J1,3,Pin_3*%
%TO.N,/MOTOR4_A_OUT*%
X159335000Y-106160000D03*
%TO.P,J1,4,Pin_4*%
%TO.N,/MOTOR2_CTRL1*%
X159335000Y-108700000D03*
%TO.P,J1,5,Pin_5*%
%TO.N,/MOTOR4_B_OUT*%
X156795000Y-106160000D03*
%TO.P,J1,6,Pin_6*%
%TO.N,/MOTOR2_CTRL2*%
X156795000Y-108700000D03*
%TO.P,J1,7,Pin_7*%
%TO.N,/CTRL_EXT_LOAD2*%
X154255000Y-106160000D03*
%TO.P,J1,8,Pin_8*%
%TO.N,/MOTOR4_CTRL1*%
X154255000Y-108700000D03*
%TO.P,J1,9,Pin_9*%
%TO.N,/USART2_RX*%
X151715000Y-106160000D03*
%TO.P,J1,10,Pin_10*%
%TO.N,/MOTOR4_CTRL2*%
X151715000Y-108700000D03*
%TO.P,J1,11,Pin_11*%
%TO.N,/EXT_LOAD2_OUT*%
X149175000Y-106160000D03*
%TO.P,J1,12,Pin_12*%
%TO.N,/USART2_TX*%
X149175000Y-108700000D03*
%TO.P,J1,13,Pin_13*%
%TO.N,/FAST_CHARGE_CTRL*%
X146635000Y-106160000D03*
%TO.P,J1,14,Pin_14*%
%TO.N,/BATTERY*%
X146635000Y-108700000D03*
%TO.P,J1,15,Pin_15*%
%TO.N,unconnected-(J1-Pin_15-Pad15)*%
X144095000Y-106160000D03*
%TO.P,J1,16,Pin_16*%
%TO.N,/I2C1_SCL*%
X144095000Y-108700000D03*
%TO.P,J1,17,Pin_17*%
%TO.N,/I2C1_SDA*%
X141555000Y-106160000D03*
%TO.P,J1,18,Pin_18*%
%TO.N,/3V3 OUT*%
X141555000Y-108700000D03*
%TO.P,J1,19,Pin_19*%
%TO.N,GND*%
X139015000Y-106160000D03*
%TO.P,J1,20,Pin_20*%
%TO.N,/5V OUT*%
X139015000Y-108700000D03*
%TO.P,J1,21,Pin_21*%
%TO.N,/EXT_LOAD1_OUT*%
X136475000Y-106160000D03*
%TO.P,J1,22,Pin_22*%
%TO.N,/HV*%
X136475000Y-108700000D03*
%TO.P,J1,23,Pin_23*%
%TO.N,GND*%
X133935000Y-106160000D03*
%TO.P,J1,24,Pin_24*%
%TO.N,/MOTOR3_CTRL1*%
X133935000Y-108700000D03*
%TO.P,J1,25,Pin_25*%
%TO.N,/CTRL_EXT_LOAD1*%
X131395000Y-106160000D03*
%TO.P,J1,26,Pin_26*%
%TO.N,/MOTOR3_CTRL2*%
X131395000Y-108700000D03*
%TO.P,J1,27,Pin_27*%
%TO.N,/MOTOR3_A_OUT*%
X128855000Y-106160000D03*
%TO.P,J1,28,Pin_28*%
%TO.N,/MOTOR1_CTRL1*%
X128855000Y-108700000D03*
%TO.P,J1,29,Pin_29*%
%TO.N,/MOTOR3_B_OUT*%
X126315000Y-106160000D03*
%TO.P,J1,30,Pin_30*%
%TO.N,/MOTOR1_CTRL2*%
X126315000Y-108700000D03*
%TO.P,J1,31,Pin_31*%
%TO.N,/MOTOR1_B_OUT*%
X123775000Y-106160000D03*
%TO.P,J1,32,Pin_32*%
%TO.N,/MOTOR1_A_OUT*%
X123775000Y-108700000D03*
%TD*%
D53*
%TO.N,/5V OUT*%
X155000000Y-65800000D03*
X150876000Y-83185000D03*
X118364000Y-69596000D03*
X168148000Y-64643000D03*
X139827000Y-103378000D03*
X138684000Y-66548000D03*
%TO.N,/MOTOR1_A_OUT*%
X120650000Y-104902000D03*
X169545000Y-81153000D03*
X157734000Y-86360000D03*
%TO.N,/MOTOR1_CTRL1*%
X178816000Y-97663000D03*
X169926000Y-70739000D03*
%TO.N,/MOTOR2_CTRL1*%
X177800000Y-73025000D03*
%TO.N,/MOTOR1_B_OUT*%
X155956000Y-87376000D03*
X169926000Y-73406000D03*
%TO.N,/MOTOR1_CTRL2*%
X180848000Y-95758000D03*
X169989500Y-69278500D03*
%TO.N,/MOTOR2_B_OUT*%
X179832000Y-72898000D03*
%TO.N,/MOTOR3_B_OUT*%
X112776000Y-82804000D03*
X127508000Y-94996000D03*
%TO.N,/MOTOR4_B_OUT*%
X114427000Y-81661000D03*
%TO.N,/MOTOR3_A_OUT*%
X119888000Y-73152000D03*
X128778000Y-94107000D03*
%TO.N,/MOTOR4_CTRL2*%
X117094000Y-68707000D03*
X152400000Y-90043000D03*
X152781000Y-103251000D03*
X152781000Y-96901000D03*
%TO.N,/MOTOR3_CTRL1*%
X122555000Y-102362000D03*
%TO.N,/MOTOR4_A_OUT*%
X118237000Y-79375000D03*
%TO.N,/MOTOR4_CTRL1*%
X154305000Y-96393000D03*
X117094000Y-66675000D03*
X154305000Y-103378000D03*
X152527000Y-88011000D03*
%TO.N,/BATTERY*%
X119888000Y-87503000D03*
X114300000Y-62992000D03*
%TO.N,/3V3 OUT*%
X117602000Y-100965000D03*
X168100000Y-75400000D03*
X157200000Y-82700000D03*
X123190000Y-86233000D03*
X117983000Y-90678000D03*
%TO.N,/I2C1_SDA*%
X122682000Y-98933000D03*
%TO.N,/I2C1_SCL*%
X116078000Y-101092000D03*
X130810000Y-100457000D03*
%TO.N,/CTRL_EXT_LOAD2*%
X159004000Y-91567000D03*
%TO.N,/CTRL_EXT_LOAD1*%
X137668000Y-68707000D03*
X137668000Y-102108000D03*
%TO.N,/EXT_LOAD2_OUT*%
X156400000Y-71600000D03*
%TO.N,/EXT_LOAD1_OUT*%
X120269000Y-70104000D03*
%TO.N,/HV*%
X174271600Y-86006600D03*
X158496000Y-69596000D03*
%TO.N,/PWR SWITCH IN*%
X118110000Y-89027000D03*
X115443000Y-61087000D03*
%TO.N,GND*%
X131400000Y-84800000D03*
X111252000Y-87630000D03*
X134500000Y-72900000D03*
X111288000Y-62520000D03*
X133477000Y-64643000D03*
X133985000Y-102997000D03*
X150368000Y-89154000D03*
X112776000Y-96266000D03*
X119253000Y-71501000D03*
%TO.N,/CC2*%
X162433000Y-63246000D03*
X175641000Y-63246000D03*
%TD*%
D54*
%TO.N,/MOTOR2_A_OUT*%
X179451000Y-75375000D02*
X179451000Y-76899000D01*
X175653000Y-77081500D02*
X175552000Y-76980500D01*
X175552000Y-76980500D02*
X175552000Y-76043000D01*
D55*
X181356000Y-91821000D02*
X181356000Y-77280000D01*
X161875000Y-108700000D02*
X166562000Y-104013000D01*
D54*
X179451000Y-76899000D02*
X179268500Y-77081500D01*
X179268500Y-77081500D02*
X175653000Y-77081500D01*
D55*
X169164000Y-104013000D02*
X181356000Y-91821000D01*
X181356000Y-77280000D02*
X179451000Y-75375000D01*
X166562000Y-104013000D02*
X169164000Y-104013000D01*
%TO.N,/5V OUT*%
X173577000Y-64815000D02*
X172262000Y-63500000D01*
D54*
X137795000Y-104267000D02*
X138684000Y-103378000D01*
X143224000Y-92566000D02*
X145025000Y-90765000D01*
X141155000Y-92618000D02*
X141207000Y-92566000D01*
D55*
X151296000Y-77384000D02*
X150880000Y-77800000D01*
X147415000Y-87805000D02*
X147455000Y-87765000D01*
X151296000Y-75194000D02*
X151296000Y-77384000D01*
X152146000Y-84836000D02*
X150876000Y-83566000D01*
X154252000Y-66548000D02*
X155000000Y-65800000D01*
D54*
X175281000Y-67928000D02*
X175281000Y-67061000D01*
D55*
X169291000Y-63500000D02*
X168148000Y-64643000D01*
D54*
X174252000Y-70167000D02*
X174252000Y-68957000D01*
X111313000Y-67295000D02*
X111288000Y-67270000D01*
X139015000Y-108700000D02*
X137795000Y-107480000D01*
D55*
X112848000Y-65710000D02*
X111288000Y-67270000D01*
X114238000Y-65710000D02*
X114358000Y-65590000D01*
X172262000Y-63500000D02*
X169291000Y-63500000D01*
X147320000Y-87630000D02*
X147455000Y-87765000D01*
D54*
X111313000Y-70232000D02*
X111313000Y-67295000D01*
D55*
X175027000Y-64815000D02*
X176277000Y-66065000D01*
X150495000Y-86487000D02*
X152146000Y-84836000D01*
X150876000Y-83566000D02*
X150876000Y-83185000D01*
X148286000Y-86487000D02*
X150495000Y-86487000D01*
X145025000Y-90195000D02*
X147455000Y-87765000D01*
D54*
X141207000Y-92566000D02*
X143224000Y-92566000D01*
D55*
X150100000Y-73998000D02*
X150100000Y-66548000D01*
X150100000Y-66548000D02*
X154252000Y-66548000D01*
D54*
X137795000Y-107480000D02*
X137795000Y-104267000D01*
D55*
X123140000Y-67660000D02*
X123140000Y-69650000D01*
D54*
X175281000Y-67061000D02*
X176277000Y-66065000D01*
X174252000Y-68957000D02*
X175281000Y-67928000D01*
D55*
X145025000Y-90765000D02*
X145025000Y-90195000D01*
X114238000Y-65710000D02*
X115148000Y-64800000D01*
X147415000Y-90565000D02*
X147415000Y-87805000D01*
X115148000Y-64800000D02*
X118364000Y-64800000D01*
X118364000Y-64800000D02*
X126000000Y-64800000D01*
X114238000Y-65710000D02*
X112848000Y-65710000D01*
D54*
X141155000Y-93365000D02*
X141155000Y-92618000D01*
D55*
X147455000Y-87765000D02*
X147455000Y-87318000D01*
X147455000Y-87318000D02*
X148286000Y-86487000D01*
X138684000Y-66548000D02*
X150100000Y-66548000D01*
D54*
X138684000Y-103378000D02*
X139827000Y-103378000D01*
D55*
X147415000Y-93215000D02*
X147415000Y-90565000D01*
X151296000Y-75194000D02*
X150100000Y-73998000D01*
X126000000Y-64800000D02*
X123140000Y-67660000D01*
X118364000Y-69596000D02*
X118364000Y-64800000D01*
X173577000Y-64815000D02*
X175027000Y-64815000D01*
%TO.N,/MOTOR1_A_OUT*%
X134874000Y-83820000D02*
X125222000Y-93472000D01*
X140208000Y-76962000D02*
X137922000Y-79248000D01*
X157734000Y-86360000D02*
X152654000Y-81280000D01*
X125222000Y-102362000D02*
X124079000Y-103505000D01*
X136779000Y-83820000D02*
X134874000Y-83820000D01*
D54*
X168783000Y-78423000D02*
X169545000Y-79185000D01*
D55*
X124079000Y-103505000D02*
X120650000Y-103505000D01*
X137922000Y-79248000D02*
X137922000Y-82677000D01*
X120650000Y-103505000D02*
X120650000Y-104902000D01*
D54*
X168783000Y-78423000D02*
X172339000Y-78423000D01*
D55*
X125222000Y-93472000D02*
X125222000Y-102362000D01*
D54*
X172302000Y-78386000D02*
X172302000Y-76043000D01*
D55*
X152654000Y-81280000D02*
X148717000Y-81280000D01*
X148717000Y-81280000D02*
X144399000Y-76962000D01*
X144399000Y-76962000D02*
X140208000Y-76962000D01*
X137922000Y-82677000D02*
X136779000Y-83820000D01*
D54*
X169545000Y-79185000D02*
X169545000Y-81153000D01*
X172339000Y-78423000D02*
X172302000Y-78386000D01*
%TO.N,/MOTOR1_CTRL1*%
X164973000Y-110490000D02*
X164465000Y-110490000D01*
X171652000Y-70167000D02*
X170498000Y-70167000D01*
X178816000Y-97663000D02*
X177800000Y-97663000D01*
X177800000Y-97663000D02*
X164973000Y-110490000D01*
X170498000Y-70167000D02*
X169926000Y-70739000D01*
X130645000Y-110490000D02*
X128855000Y-108700000D01*
X164465000Y-110490000D02*
X130645000Y-110490000D01*
%TO.N,/MOTOR2_CTRL1*%
X177419000Y-70104000D02*
X177356000Y-70167000D01*
X177800000Y-70485000D02*
X177419000Y-70104000D01*
X177356000Y-70167000D02*
X176202000Y-70167000D01*
X177800000Y-73025000D02*
X177800000Y-70485000D01*
%TO.N,/MOTOR1_B_OUT*%
X173602000Y-76043000D02*
X173602000Y-75105500D01*
D55*
X154051000Y-87122000D02*
X155702000Y-87122000D01*
X148336000Y-82169000D02*
X151892000Y-82169000D01*
X126492000Y-94107000D02*
X135509000Y-85090000D01*
X151892000Y-82169000D02*
X154051000Y-84328000D01*
D54*
X173602000Y-75105500D02*
X171902500Y-73406000D01*
D55*
X123698000Y-106083000D02*
X123775000Y-106160000D01*
D54*
X175895000Y-82487000D02*
X173602000Y-80194000D01*
X171902500Y-73406000D02*
X169926000Y-73406000D01*
D55*
X123775000Y-106160000D02*
X126492000Y-103443000D01*
X135636000Y-85217000D02*
X145288000Y-85217000D01*
X135509000Y-85090000D02*
X135636000Y-85217000D01*
X126492000Y-103443000D02*
X126492000Y-94107000D01*
X154051000Y-84328000D02*
X154051000Y-87122000D01*
X155702000Y-87122000D02*
X155956000Y-87376000D01*
X145288000Y-85217000D02*
X148336000Y-82169000D01*
D54*
X173602000Y-80194000D02*
X173602000Y-76043000D01*
%TO.N,/MOTOR2_CTRL2*%
X161036000Y-109855000D02*
X164592000Y-109855000D01*
X175716500Y-69088000D02*
X175552000Y-69252500D01*
X160528000Y-107569000D02*
X160528000Y-109347000D01*
X164592000Y-109855000D02*
X182245000Y-92202000D01*
X175552000Y-69252500D02*
X175552000Y-70167000D01*
X182245000Y-92202000D02*
X182245000Y-73660000D01*
X177673000Y-69088000D02*
X175716500Y-69088000D01*
X160528000Y-109347000D02*
X161036000Y-109855000D01*
X157946000Y-107549000D02*
X160508000Y-107549000D01*
X161036000Y-109855000D02*
X161099500Y-109918500D01*
X160508000Y-107549000D02*
X160528000Y-107569000D01*
X156795000Y-108700000D02*
X157946000Y-107549000D01*
X182245000Y-73660000D02*
X177673000Y-69088000D01*
%TO.N,/MOTOR1_CTRL2*%
X169989500Y-69278500D02*
X170307000Y-68961000D01*
X126315000Y-108700000D02*
X128740000Y-111125000D01*
X180848000Y-95758000D02*
X180213000Y-96393000D01*
X177266600Y-99187000D02*
X165328600Y-111125000D01*
X172302000Y-69345000D02*
X172302000Y-70167000D01*
X128740000Y-111125000D02*
X165252400Y-111125000D01*
X170307000Y-68961000D02*
X171918000Y-68961000D01*
X171918000Y-68961000D02*
X172302000Y-69345000D01*
X180213000Y-98171000D02*
X179197000Y-99187000D01*
X179197000Y-99187000D02*
X177266600Y-99187000D01*
X180213000Y-96393000D02*
X180213000Y-98171000D01*
X165328600Y-111125000D02*
X165252400Y-111125000D01*
%TO.N,/MOTOR2_B_OUT*%
X174252000Y-76043000D02*
X174252000Y-75105500D01*
D55*
X161875000Y-106160000D02*
X161875000Y-106249000D01*
D54*
X175895000Y-79693000D02*
X174252000Y-78050000D01*
X174252000Y-75105500D02*
X174935500Y-74422000D01*
X174252000Y-78050000D02*
X174252000Y-76043000D01*
X174935500Y-74422000D02*
X177927000Y-74422000D01*
X177927000Y-74422000D02*
X179451000Y-72898000D01*
D55*
X161875000Y-106249000D02*
X161925000Y-106299000D01*
D54*
X179451000Y-72898000D02*
X179832000Y-72898000D01*
D55*
%TO.N,/MOTOR3_B_OUT*%
X110609000Y-82804000D02*
X107713000Y-79908000D01*
X126315000Y-106160000D02*
X127508000Y-104967000D01*
X127508000Y-104967000D02*
X127508000Y-94996000D01*
X126315000Y-106160000D02*
X126238000Y-106083000D01*
X112776000Y-82804000D02*
X110609000Y-82804000D01*
D54*
X107713000Y-79908000D02*
X108813000Y-79908000D01*
X110663000Y-78058000D02*
X110663000Y-76108000D01*
X108813000Y-79908000D02*
X110663000Y-78058000D01*
%TO.N,/MOTOR4_B_OUT*%
X112624000Y-79858000D02*
X114427000Y-81661000D01*
X111413000Y-79858000D02*
X111413000Y-76208000D01*
X111413000Y-76208000D02*
X111313000Y-76108000D01*
X111413000Y-79858000D02*
X112624000Y-79858000D01*
D55*
%TO.N,/MOTOR3_A_OUT*%
X107061000Y-75410000D02*
X107061000Y-73152000D01*
D54*
X105663000Y-76808000D02*
X106413000Y-77558000D01*
D55*
X128855000Y-106160000D02*
X128855000Y-94184000D01*
D54*
X109363000Y-77508000D02*
X109363000Y-76108000D01*
D55*
X128855000Y-94184000D02*
X128778000Y-94107000D01*
D54*
X106413000Y-77558000D02*
X109413000Y-77558000D01*
X109413000Y-77558000D02*
X109363000Y-77508000D01*
D55*
X105663000Y-76808000D02*
X107061000Y-75410000D01*
X128778000Y-106083000D02*
X128855000Y-106160000D01*
X107061000Y-73152000D02*
X119888000Y-73152000D01*
D54*
%TO.N,/MOTOR4_CTRL2*%
X152019000Y-103251000D02*
X152781000Y-103251000D01*
X113030000Y-71501000D02*
X112613000Y-71084000D01*
X153416000Y-91059000D02*
X152400000Y-90043000D01*
X153416000Y-91186000D02*
X153416000Y-91059000D01*
X112613000Y-71084000D02*
X112613000Y-70232000D01*
X153416000Y-96266000D02*
X153416000Y-91186000D01*
X150564000Y-107549000D02*
X150564000Y-104706000D01*
X114300000Y-71501000D02*
X117094000Y-68707000D01*
X151715000Y-108700000D02*
X150564000Y-107549000D01*
X151511000Y-103759000D02*
X152019000Y-103251000D01*
X150622000Y-104648000D02*
X151511000Y-103759000D01*
X150564000Y-104706000D02*
X150622000Y-104648000D01*
X113030000Y-71501000D02*
X114300000Y-71501000D01*
X152781000Y-96901000D02*
X153416000Y-96266000D01*
%TO.N,/MOTOR3_CTRL1*%
X122555000Y-102362000D02*
X112395000Y-102362000D01*
X112395000Y-102362000D02*
X104140000Y-94107000D01*
X104141000Y-73533000D02*
X107442000Y-70232000D01*
X104140000Y-94107000D02*
X104140000Y-73533000D01*
X104140000Y-73533000D02*
X104141000Y-73533000D01*
X107442000Y-70232000D02*
X108713000Y-70232000D01*
%TO.N,/MOTOR3_CTRL2*%
X116078000Y-107442000D02*
X103505000Y-94869000D01*
X131395000Y-108700000D02*
X130137000Y-107442000D01*
X130137000Y-107442000D02*
X116078000Y-107442000D01*
X107696000Y-68961000D02*
X109029500Y-68961000D01*
X103505000Y-94869000D02*
X103505000Y-73152000D01*
X109029500Y-68961000D02*
X109363000Y-69294500D01*
X109363000Y-69294500D02*
X109363000Y-70232000D01*
X103505000Y-73152000D02*
X107696000Y-68961000D01*
%TO.N,/MOTOR4_A_OUT*%
X115697000Y-77978000D02*
X116840000Y-77978000D01*
X116840000Y-77978000D02*
X118237000Y-79375000D01*
X112613000Y-77022500D02*
X112613000Y-76108000D01*
X113568500Y-77978000D02*
X112613000Y-77022500D01*
X115697000Y-77978000D02*
X113568500Y-77978000D01*
%TO.N,/MOTOR4_CTRL1*%
X113410000Y-70232000D02*
X116967000Y-66675000D01*
X153035000Y-107480000D02*
X153035000Y-104648000D01*
X113263000Y-70232000D02*
X113410000Y-70232000D01*
X154305000Y-96393000D02*
X154305000Y-89789000D01*
X116967000Y-66675000D02*
X117094000Y-66675000D01*
X154305000Y-89789000D02*
X152527000Y-88011000D01*
X154255000Y-108700000D02*
X153035000Y-107480000D01*
X153035000Y-104648000D02*
X154305000Y-103378000D01*
D55*
%TO.N,/BATTERY*%
X113348000Y-89408000D02*
X113348000Y-91887000D01*
X154178000Y-55372000D02*
X154797000Y-55991000D01*
X115253000Y-87503000D02*
X119888000Y-87503000D01*
X106664000Y-89773000D02*
X106426000Y-89535000D01*
X110419000Y-89773000D02*
X106664000Y-89773000D01*
X131318000Y-60452000D02*
X131318000Y-58618819D01*
X134564819Y-55372000D02*
X154178000Y-55372000D01*
X113348000Y-89408000D02*
X115253000Y-87503000D01*
X106299000Y-93218000D02*
X106299000Y-89662000D01*
X112983000Y-89773000D02*
X113348000Y-89408000D01*
X128778000Y-62992000D02*
X131318000Y-60452000D01*
X114300000Y-62992000D02*
X128778000Y-62992000D01*
X110419000Y-89773000D02*
X112983000Y-89773000D01*
X154797000Y-55991000D02*
X154797000Y-56732000D01*
X131318000Y-58618819D02*
X134564819Y-55372000D01*
X106299000Y-89662000D02*
X106426000Y-89535000D01*
X119888000Y-87503000D02*
X119888000Y-91631000D01*
X113348000Y-91887000D02*
X114098000Y-92637000D01*
%TO.N,/3V3 OUT*%
X123633000Y-86233000D02*
X125500000Y-88100000D01*
X128330000Y-75734201D02*
X128330000Y-74422000D01*
X120269000Y-81714000D02*
X123085000Y-84530000D01*
X123190000Y-86233000D02*
X123633000Y-86233000D01*
X123317000Y-74422000D02*
X128330000Y-74422000D01*
X121107000Y-92659000D02*
X123952000Y-95504000D01*
X123190000Y-84530000D02*
X123190000Y-86233000D01*
X116796000Y-92659000D02*
X117856000Y-92659000D01*
X115697000Y-75946000D02*
X114173000Y-74422000D01*
X145300000Y-75700000D02*
X149500000Y-79900000D01*
X129695799Y-77100000D02*
X128330000Y-75734201D01*
X114173000Y-74422000D02*
X109461500Y-74422000D01*
X117856000Y-92659000D02*
X121107000Y-92659000D01*
X123085000Y-84530000D02*
X123190000Y-84530000D01*
X138200000Y-74500000D02*
X139400000Y-75700000D01*
X129695799Y-77100000D02*
X129900000Y-77100000D01*
X123952000Y-99568000D02*
X123836000Y-99684000D01*
X129695799Y-77100000D02*
X129695799Y-76604201D01*
X123952000Y-95504000D02*
X123952000Y-99568000D01*
X117585000Y-96901000D02*
X117585000Y-100948000D01*
X120269000Y-78232000D02*
X120269000Y-81714000D01*
X129695799Y-77100000D02*
X129695799Y-76854201D01*
X121793000Y-76708000D02*
X120269000Y-78232000D01*
X121793000Y-75946000D02*
X115697000Y-75946000D01*
X121793000Y-75946000D02*
X123317000Y-74422000D01*
X139400000Y-75700000D02*
X145300000Y-75700000D01*
X156100000Y-82700000D02*
X157200000Y-82700000D01*
X121793000Y-75946000D02*
X121793000Y-76708000D01*
X117856000Y-90805000D02*
X117983000Y-90678000D01*
D54*
X168743000Y-76043000D02*
X168100000Y-75400000D01*
X171652000Y-76043000D02*
X168743000Y-76043000D01*
D55*
X120368000Y-99684000D02*
X117585000Y-96901000D01*
X123836000Y-99684000D02*
X120368000Y-99684000D01*
X153300000Y-79900000D02*
X156100000Y-82700000D01*
X128330000Y-74422000D02*
X128330000Y-72800000D01*
X132500000Y-74500000D02*
X138200000Y-74500000D01*
D54*
X108713000Y-76108000D02*
X108713000Y-75170500D01*
D55*
X117856000Y-92659000D02*
X117856000Y-90805000D01*
X129900000Y-77100000D02*
X132500000Y-74500000D01*
D54*
X128330000Y-72800000D02*
X128330000Y-73870000D01*
D55*
X149500000Y-79900000D02*
X153300000Y-79900000D01*
D54*
X108713000Y-75170500D02*
X109461500Y-74422000D01*
%TO.N,/I2C1_SDA*%
X116796000Y-93985000D02*
X119322000Y-93985000D01*
X120142000Y-97155000D02*
X120142000Y-94805000D01*
X119322000Y-93985000D02*
X119888000Y-94551000D01*
X120142000Y-97155000D02*
X121920000Y-98933000D01*
X120142000Y-94805000D02*
X119888000Y-94551000D01*
X121920000Y-98933000D02*
X122682000Y-98933000D01*
%TO.N,/I2C1_SCL*%
X116078000Y-101092000D02*
X112522000Y-101092000D01*
D55*
X110756000Y-92693000D02*
X110419000Y-92693000D01*
D54*
X110363000Y-98933000D02*
X110363000Y-95885000D01*
X112522000Y-101092000D02*
X110363000Y-98933000D01*
X116078000Y-95353000D02*
X116078000Y-101092000D01*
X116796000Y-94635000D02*
X116078000Y-95353000D01*
X142944000Y-104336000D02*
X142944000Y-107549000D01*
X142944000Y-107549000D02*
X144095000Y-108700000D01*
D55*
X110419000Y-95829000D02*
X110363000Y-95885000D01*
D54*
X130810000Y-100457000D02*
X131445000Y-101092000D01*
X139700000Y-101092000D02*
X142944000Y-104336000D01*
X131445000Y-101092000D02*
X139700000Y-101092000D01*
D55*
X110419000Y-92693000D02*
X110419000Y-95829000D01*
%TO.N,/PWR SWITCH OUT*%
X145674000Y-98711201D02*
X145674000Y-97656000D01*
D54*
X130100000Y-82500000D02*
X130100000Y-82000000D01*
X137908000Y-96765000D02*
X138655000Y-96765000D01*
X136647000Y-95504000D02*
X137908000Y-96765000D01*
X131220000Y-81000000D02*
X132650000Y-79570000D01*
X132780000Y-79700000D02*
X132650000Y-79570000D01*
X132650000Y-79570000D02*
X132650000Y-77050000D01*
D55*
X150591000Y-99715000D02*
X146677799Y-99715000D01*
X118405000Y-57351000D02*
X122755000Y-57351000D01*
D54*
X130100000Y-81500000D02*
X130100000Y-82000000D01*
D55*
X145674000Y-97656000D02*
X147315000Y-96015000D01*
D54*
X130100000Y-81000000D02*
X131220000Y-81000000D01*
X132850000Y-79370000D02*
X132650000Y-79570000D01*
D55*
X122755000Y-57351000D02*
X124205000Y-58801000D01*
D54*
X130100000Y-81000000D02*
X130100000Y-81500000D01*
D55*
X143727799Y-96765000D02*
X142256000Y-96765000D01*
X146677799Y-99715000D02*
X145674000Y-98711201D01*
X145674000Y-98711201D02*
X143727799Y-96765000D01*
D54*
X132650000Y-77050000D02*
X132950000Y-76750000D01*
X133587000Y-95504000D02*
X136647000Y-95504000D01*
%TO.N,/CTRL_EXT_LOAD2*%
X156298000Y-79082000D02*
X156298000Y-79079000D01*
X158305500Y-81089500D02*
X156298000Y-79082000D01*
X158305500Y-81089500D02*
X159004000Y-81788000D01*
X159004000Y-81788000D02*
X159004000Y-91567000D01*
X158369000Y-81026000D02*
X158305500Y-81089500D01*
X161671000Y-81026000D02*
X158369000Y-81026000D01*
%TO.N,/CTRL_EXT_LOAD1*%
X135382000Y-67056000D02*
X137033000Y-68707000D01*
X132688000Y-69750000D02*
X135382000Y-67056000D01*
X131395000Y-102285000D02*
X132187000Y-101493000D01*
X131395000Y-106160000D02*
X131395000Y-102285000D01*
X137053000Y-101493000D02*
X137668000Y-102108000D01*
X131660000Y-69750000D02*
X132688000Y-69750000D01*
X132187000Y-101493000D02*
X137053000Y-101493000D01*
X137033000Y-68707000D02*
X137668000Y-68707000D01*
%TO.N,/FAST_CHARGE_CTRL*%
X159131000Y-93878700D02*
X163814651Y-93878700D01*
X158916300Y-93878700D02*
X159131000Y-93878700D01*
X146635000Y-104190000D02*
X149479000Y-101346000D01*
X149479000Y-101346000D02*
X151663700Y-101346000D01*
X163814651Y-94503349D02*
X163814651Y-93878700D01*
X146635000Y-106160000D02*
X146635000Y-104190000D01*
X151663700Y-101346000D02*
X159131000Y-93878700D01*
%TO.N,/EXT_LOAD2_OUT*%
X153796000Y-74244000D02*
X153796000Y-71138000D01*
X156400000Y-71640000D02*
X156400000Y-71600000D01*
X153796000Y-74244000D02*
X156400000Y-71640000D01*
X153796000Y-71138000D02*
X154138000Y-70796000D01*
D55*
%TO.N,/EXT_LOAD1_OUT*%
X122050000Y-65750000D02*
X120300000Y-67500000D01*
X120269000Y-67531000D02*
X120300000Y-67500000D01*
X123500000Y-65750000D02*
X122050000Y-65750000D01*
X120269000Y-70104000D02*
X120269000Y-67531000D01*
%TO.N,/HV*%
X161036000Y-69596000D02*
X158496000Y-69596000D01*
X163311800Y-69596000D02*
X163565800Y-69342000D01*
D54*
X150622000Y-102108000D02*
X147955000Y-104775000D01*
X163373800Y-102794800D02*
X162687000Y-102108000D01*
D55*
X171842000Y-86006600D02*
X174271600Y-86006600D01*
X173736000Y-96110600D02*
X173097551Y-96110600D01*
X168293304Y-91866948D02*
X170904652Y-89255600D01*
D54*
X164084000Y-102794800D02*
X163373800Y-102794800D01*
D55*
X173736000Y-96110600D02*
X173736000Y-97917000D01*
D54*
X171080000Y-89080252D02*
X170904652Y-89255600D01*
X137757000Y-109982000D02*
X136475000Y-108700000D01*
X147955000Y-104775000D02*
X147955000Y-109982000D01*
D55*
X171842000Y-88318252D02*
X170904652Y-89255600D01*
X168293304Y-92300600D02*
X168293304Y-91866948D01*
X161036000Y-69596000D02*
X163311800Y-69596000D01*
X168858200Y-102794800D02*
X164084000Y-102794800D01*
X174271600Y-86006600D02*
X174371000Y-86106000D01*
D54*
X162687000Y-102108000D02*
X150622000Y-102108000D01*
D55*
X170904652Y-93917701D02*
X170904652Y-89255600D01*
X173736000Y-97917000D02*
X168858200Y-102794800D01*
X163126400Y-68902600D02*
X163126400Y-66785900D01*
X173097551Y-96110600D02*
X170904652Y-93917701D01*
X171842000Y-86006600D02*
X171842000Y-88318252D01*
X168124652Y-92131948D02*
X168293304Y-92300600D01*
D54*
X147955000Y-109982000D02*
X137757000Y-109982000D01*
%TO.N,Net-(IC1-BISEN)*%
X174902000Y-76980500D02*
X174902000Y-76043000D01*
X179451000Y-79249000D02*
X177170500Y-79249000D01*
X177170500Y-79249000D02*
X174902000Y-76980500D01*
%TO.N,Net-(IC1-VCP)*%
X176277000Y-67705000D02*
X174902000Y-69080000D01*
X174902000Y-69080000D02*
X174902000Y-70167000D01*
%TO.N,Net-(IC1-AISEN)*%
X172339000Y-79503000D02*
X172952000Y-78890000D01*
X172952000Y-78890000D02*
X172952000Y-76043000D01*
%TO.N,Net-(IC1-VINT)*%
X170727000Y-67645000D02*
X171367500Y-67645000D01*
X171367500Y-67645000D02*
X172952000Y-69229500D01*
X172952000Y-69229500D02*
X172952000Y-70167000D01*
%TO.N,Net-(IC2-AISEN)*%
X107363000Y-78108000D02*
X105653000Y-79818000D01*
X109463000Y-78108000D02*
X107363000Y-78108000D01*
X105653000Y-79818000D02*
X105653000Y-85140000D01*
X110013000Y-76108000D02*
X110013000Y-77558000D01*
X110013000Y-77558000D02*
X109463000Y-78108000D01*
%TO.N,Net-(IC2-VCP)*%
X111963000Y-69294500D02*
X113907500Y-67350000D01*
X111963000Y-70232000D02*
X111963000Y-69294500D01*
X113907500Y-67350000D02*
X114238000Y-67350000D01*
%TO.N,Net-(IC2-BISEN)*%
X116332000Y-84201000D02*
X116332000Y-79756000D01*
X116332000Y-79756000D02*
X114411000Y-79756000D01*
X115443000Y-85090000D02*
X116332000Y-84201000D01*
X114411000Y-79756000D02*
X111963000Y-77308000D01*
X114173000Y-85090000D02*
X115443000Y-85090000D01*
X111963000Y-77308000D02*
X111963000Y-76108000D01*
%TO.N,Net-(IC2-VINT)*%
X110013000Y-69045000D02*
X108238000Y-67270000D01*
X110013000Y-70232000D02*
X110013000Y-69045000D01*
%TO.N,Net-(IC3-SW)*%
X127398000Y-81500000D02*
X128000000Y-81500000D01*
X127349000Y-78044799D02*
X127349000Y-81451000D01*
X127349000Y-81451000D02*
X127398000Y-81500000D01*
X126404201Y-77100000D02*
X127349000Y-78044799D01*
%TO.N,Net-(IC3-FB)*%
X125325000Y-83260000D02*
X125550000Y-83035000D01*
X125475000Y-83110000D02*
X125550000Y-83035000D01*
X123190000Y-83110000D02*
X125475000Y-83110000D01*
X123190000Y-80310000D02*
X121874000Y-78994000D01*
X128400000Y-82900000D02*
X128000000Y-82500000D01*
X127465000Y-83035000D02*
X128000000Y-82500000D01*
X125550000Y-83035000D02*
X127465000Y-83035000D01*
X128400000Y-85700000D02*
X128400000Y-82900000D01*
X123190000Y-83110000D02*
X123190000Y-80310000D01*
%TO.N,Net-(IC5-VS)*%
X114825000Y-96901000D02*
X114825000Y-95340000D01*
X114825000Y-95340000D02*
X114120000Y-94635000D01*
D55*
%TO.N,/PWR SWITCH IN*%
X116649000Y-89027000D02*
X116268000Y-89408000D01*
D54*
X115697000Y-92495500D02*
X115697000Y-89979000D01*
X115697000Y-89979000D02*
X116268000Y-89408000D01*
D55*
X118110000Y-89027000D02*
X116649000Y-89027000D01*
D54*
X114857500Y-93335000D02*
X115697000Y-92495500D01*
X111633000Y-97663000D02*
X112395000Y-98425000D01*
X111633000Y-94615000D02*
X111633000Y-97663000D01*
X112913000Y-93335000D02*
X111633000Y-94615000D01*
D55*
X126619000Y-61087000D02*
X128905000Y-58801000D01*
D54*
X114120000Y-93335000D02*
X112913000Y-93335000D01*
D55*
X115443000Y-61087000D02*
X126619000Y-61087000D01*
D54*
X114120000Y-93335000D02*
X114857500Y-93335000D01*
%TO.N,GND*%
X114120000Y-93985000D02*
X115431500Y-93985000D01*
X145255000Y-93855000D02*
X145888000Y-94488000D01*
X173577000Y-67595000D02*
X173577000Y-70142000D01*
X111253000Y-85090000D02*
X111253000Y-87756000D01*
D55*
X143764000Y-56642000D02*
X142475000Y-57931000D01*
D54*
X144421000Y-83246000D02*
X142575000Y-81400000D01*
X114120000Y-93985000D02*
X113382500Y-93985000D01*
X108573000Y-85140000D02*
X111203000Y-85140000D01*
X149095000Y-90525000D02*
X149055000Y-90565000D01*
D55*
X142475000Y-57931000D02*
X142475000Y-61450000D01*
D54*
X160462000Y-74615000D02*
X161671000Y-73406000D01*
X168402000Y-66294000D02*
X169831000Y-64865000D01*
X133661000Y-90177000D02*
X135763000Y-88075000D01*
X129970000Y-72800000D02*
X134400000Y-72800000D01*
X149095000Y-87881000D02*
X150368000Y-89154000D01*
X169831000Y-64865000D02*
X170727000Y-64865000D01*
X128000000Y-82000000D02*
X126385000Y-82000000D01*
X149560000Y-92710000D02*
X149055000Y-93215000D01*
X167113200Y-68979800D02*
X166751000Y-69342000D01*
X145888000Y-94488000D02*
X148590000Y-94488000D01*
X132650000Y-82350000D02*
X132650000Y-83550000D01*
X170847000Y-64865000D02*
X173577000Y-67595000D01*
X161174000Y-88659800D02*
X161720000Y-88113800D01*
X110663000Y-70232000D02*
X110663000Y-68682000D01*
X129050000Y-81750000D02*
X128800000Y-82000000D01*
X129050000Y-81448000D02*
X129050000Y-81750000D01*
X123669000Y-71784000D02*
X122682000Y-72771000D01*
X135763000Y-88075000D02*
X137738000Y-88075000D01*
X149055000Y-93215000D02*
X149055000Y-90565000D01*
X145255000Y-93855000D02*
X143065000Y-93855000D01*
X148590000Y-93680000D02*
X149055000Y-93215000D01*
X170727000Y-64865000D02*
X170847000Y-64865000D01*
X167113200Y-66294000D02*
X167113200Y-68979800D01*
X166370000Y-79999000D02*
X168794000Y-82423000D01*
X166370000Y-72898000D02*
X166370000Y-69723000D01*
D55*
X152797000Y-56732000D02*
X143854000Y-56732000D01*
D54*
X161047000Y-90551000D02*
X161174000Y-90678000D01*
X166370000Y-79883000D02*
X166370000Y-77724000D01*
X153162000Y-99060000D02*
X150117000Y-96015000D01*
X122682000Y-72771000D02*
X121412000Y-71501000D01*
X168032000Y-85752600D02*
X168032000Y-89162948D01*
X108956000Y-65208000D02*
X108238000Y-64490000D01*
X141125000Y-72900000D02*
X142575000Y-71450000D01*
X129449000Y-82951000D02*
X132049000Y-82951000D01*
X166370000Y-79999000D02*
X166370000Y-79883000D01*
X160298200Y-91923800D02*
X153162000Y-99060000D01*
X142155000Y-93365000D02*
X142155000Y-93865000D01*
X133935000Y-106160000D02*
X133935000Y-103047000D01*
X168032000Y-89162948D02*
X168124652Y-89255600D01*
X121412000Y-71501000D02*
X119253000Y-71501000D01*
X161174000Y-91923800D02*
X160298200Y-91923800D01*
X151384000Y-92710000D02*
X149560000Y-92710000D01*
X132049000Y-82951000D02*
X132650000Y-82350000D01*
X161174000Y-90678000D02*
X161174000Y-88659800D01*
X129050000Y-81750000D02*
X129050000Y-82552000D01*
X162179000Y-72898000D02*
X161671000Y-73406000D01*
X134500000Y-72900000D02*
X141125000Y-72900000D01*
X176668000Y-92814800D02*
X179451000Y-90031800D01*
X148590000Y-94488000D02*
X148590000Y-93680000D01*
X111288000Y-64490000D02*
X111288000Y-62520000D01*
X166370000Y-69723000D02*
X166751000Y-69342000D01*
X150095000Y-96015000D02*
X150095000Y-94255000D01*
X169009400Y-85752600D02*
X172339000Y-82423000D01*
X161720000Y-88113800D02*
X162190000Y-88113800D01*
X143065000Y-93855000D02*
X142605000Y-94315000D01*
X178082000Y-83538000D02*
X173454000Y-83538000D01*
X162190000Y-88113800D02*
X165746000Y-88113800D01*
X109763000Y-65208000D02*
X108956000Y-65208000D01*
X167113200Y-66294000D02*
X168402000Y-66294000D01*
X159218000Y-74615000D02*
X160462000Y-74615000D01*
X173577000Y-70142000D02*
X173602000Y-70167000D01*
X110663000Y-68682000D02*
X109763000Y-67782000D01*
X166370000Y-77724000D02*
X166370000Y-72898000D01*
X128800000Y-82000000D02*
X128000000Y-82000000D01*
X130827000Y-92446000D02*
X133096000Y-90177000D01*
X108238000Y-64490000D02*
X111288000Y-64490000D01*
X109763000Y-67782000D02*
X109763000Y-65208000D01*
X138183000Y-87630000D02*
X139707000Y-86106000D01*
X166982852Y-88113800D02*
X165746000Y-88113800D01*
X116081500Y-93335000D02*
X116796000Y-93335000D01*
X139707000Y-86106000D02*
X141351000Y-86106000D01*
X133935000Y-103047000D02*
X133985000Y-102997000D01*
X142155000Y-93865000D02*
X142605000Y-94315000D01*
X173736000Y-93570600D02*
X173736000Y-94840600D01*
X173736000Y-93570600D02*
X175912200Y-93570600D01*
X141351000Y-86196000D02*
X143120000Y-87965000D01*
X150117000Y-96015000D02*
X150095000Y-96015000D01*
X168124652Y-89255600D02*
X166982852Y-88113800D01*
D55*
X143854000Y-56732000D02*
X143764000Y-56642000D01*
D54*
X149095000Y-87765000D02*
X149095000Y-87881000D01*
X166380200Y-65561000D02*
X167113200Y-66294000D01*
X112776000Y-94591500D02*
X112776000Y-96266000D01*
X161174000Y-91923800D02*
X161174000Y-90678000D01*
X137738000Y-88075000D02*
X138183000Y-87630000D01*
X141655000Y-93365000D02*
X142155000Y-93365000D01*
X111203000Y-85140000D02*
X111253000Y-85090000D01*
X133096000Y-90177000D02*
X133661000Y-90177000D01*
X165746000Y-88113800D02*
X165821200Y-88038600D01*
X128602000Y-81000000D02*
X129050000Y-81448000D01*
X129050000Y-82552000D02*
X129449000Y-82951000D01*
X166370000Y-72898000D02*
X162179000Y-72898000D01*
X179451000Y-90031800D02*
X179451000Y-82169000D01*
X115431500Y-93985000D02*
X116081500Y-93335000D01*
X133320000Y-64800000D02*
X133477000Y-64643000D01*
X132650000Y-83550000D02*
X131400000Y-84800000D01*
X141351000Y-86106000D02*
X141351000Y-86196000D01*
X163351300Y-65561000D02*
X166380200Y-65561000D01*
D55*
X143120000Y-81945000D02*
X142575000Y-81400000D01*
D54*
X168032000Y-85752600D02*
X169009400Y-85752600D01*
X141625000Y-82350000D02*
X142575000Y-81400000D01*
X173454000Y-83538000D02*
X172339000Y-82423000D01*
X128000000Y-81000000D02*
X128602000Y-81000000D01*
X175912200Y-93570600D02*
X176668000Y-92814800D01*
X113382500Y-93985000D02*
X112776000Y-94591500D01*
X163126400Y-65785900D02*
X163351300Y-65561000D01*
X130827000Y-95504000D02*
X130827000Y-92446000D01*
X128954000Y-71784000D02*
X129970000Y-72800000D01*
X179451000Y-82169000D02*
X178082000Y-83538000D01*
X150095000Y-94255000D02*
X149055000Y-93215000D01*
X149095000Y-87765000D02*
X149095000Y-90525000D01*
X128954000Y-71784000D02*
X123669000Y-71784000D01*
X134400000Y-72800000D02*
X134500000Y-72900000D01*
X131400000Y-64800000D02*
X133320000Y-64800000D01*
X126385000Y-82000000D02*
X125550000Y-81165000D01*
X168794000Y-82423000D02*
X172339000Y-82423000D01*
D55*
%TO.N,Net-(Q1-D)*%
X126060000Y-66760000D02*
X126000000Y-66700000D01*
X126000000Y-66700000D02*
X127950000Y-66700000D01*
X127950000Y-66700000D02*
X128900000Y-65750000D01*
X126060000Y-69650000D02*
X126060000Y-66760000D01*
D54*
%TO.N,Net-(Q1-G)*%
X128740000Y-70990000D02*
X128950000Y-71200000D01*
X134413000Y-71200000D02*
X135509000Y-70104000D01*
X128740000Y-69750000D02*
X128740000Y-69360000D01*
X128740000Y-69360000D02*
X131400000Y-66700000D01*
X128950000Y-71200000D02*
X134413000Y-71200000D01*
X128740000Y-69750000D02*
X128740000Y-70990000D01*
D55*
%TO.N,Net-(Q2-D)*%
X153800000Y-77800000D02*
X153800000Y-77326000D01*
D54*
X153800000Y-75798000D02*
X153800000Y-77800000D01*
X156035000Y-75565000D02*
X156718000Y-75565000D01*
X153800000Y-77800000D02*
X156035000Y-75565000D01*
X151296000Y-73294000D02*
X153800000Y-75798000D01*
%TO.N,Net-(Q2-G)*%
X159218000Y-79079000D02*
X159218000Y-76515000D01*
X162076000Y-76031000D02*
X159702000Y-76031000D01*
X159702000Y-76031000D02*
X159218000Y-76515000D01*
%TO.N,Net-(Q3-S)*%
X165714653Y-89010747D02*
X165746000Y-88979400D01*
X165714653Y-93878700D02*
X165714653Y-89010747D01*
%TO.N,/PROG*%
X167326000Y-93570600D02*
X166508000Y-94388600D01*
X164764652Y-95115948D02*
X164764652Y-91848300D01*
X166508000Y-94626152D02*
X165983552Y-95150600D01*
X164764652Y-91554052D02*
X162190000Y-88979400D01*
X167844855Y-93570600D02*
X168293304Y-93570600D01*
X164764652Y-91848300D02*
X164764652Y-91554052D01*
X165983552Y-95150600D02*
X164730000Y-95150600D01*
X166254000Y-95658600D02*
X167016000Y-94896600D01*
X161174000Y-100230600D02*
X161174000Y-98973802D01*
X166508000Y-94388600D02*
X166508000Y-94626152D01*
X161174000Y-98973802D02*
X164489202Y-95658600D01*
X167016000Y-94896600D02*
X167016000Y-94399455D01*
X164489202Y-95658600D02*
X166254000Y-95658600D01*
X168293304Y-93570600D02*
X167326000Y-93570600D01*
X164730000Y-95150600D02*
X164764652Y-95115948D01*
X167016000Y-94399455D02*
X167844855Y-93570600D01*
%TO.N,Net-(IC7-VCC)*%
X135347000Y-92957000D02*
X138205000Y-95815000D01*
X133096000Y-92957000D02*
X135347000Y-92957000D01*
X138205000Y-95815000D02*
X138205000Y-95615000D01*
X133830000Y-93365000D02*
X132720000Y-93365000D01*
%TO.N,Net-(IC7-SS)*%
X145255000Y-95275000D02*
X143145000Y-95275000D01*
X143145000Y-95275000D02*
X142605000Y-95815000D01*
%TO.N,Net-(C16-Pad2)*%
X140963000Y-87630000D02*
X140963000Y-90657000D01*
X140963000Y-90657000D02*
X140805000Y-90815000D01*
%TO.N,Net-(IC7-SW_1)*%
X145674000Y-102002799D02*
X142002799Y-102002799D01*
X137798000Y-100122000D02*
X138960000Y-98960000D01*
X138890000Y-99665000D02*
X138960000Y-99595000D01*
X139655000Y-98265000D02*
X139655000Y-96765000D01*
X142002799Y-102002799D02*
X138960000Y-98960000D01*
X138960000Y-98960000D02*
X139655000Y-98265000D01*
X133350000Y-100122000D02*
X137798000Y-100122000D01*
%TO.N,Net-(IC7-BOOT)*%
X141720000Y-98960000D02*
X141655000Y-98895000D01*
X141720000Y-99595000D02*
X141655000Y-99530000D01*
X141655000Y-98895000D02*
X141655000Y-96765000D01*
%TO.N,Net-(IC7-ILIM)*%
X138133000Y-93365000D02*
X138655000Y-93365000D01*
X135763000Y-90995000D02*
X138133000Y-93365000D01*
%TO.N,Net-(IC7-FB)*%
X139670000Y-92265000D02*
X139655000Y-92280000D01*
X141755000Y-92165000D02*
X139670000Y-92165000D01*
X139655000Y-92280000D02*
X139655000Y-93365000D01*
X144990000Y-88930000D02*
X143155000Y-90765000D01*
X144990000Y-87965000D02*
X145207000Y-87965000D01*
X144990000Y-87965000D02*
X144990000Y-88930000D01*
X144990000Y-87928000D02*
X147828000Y-85090000D01*
X139670000Y-92165000D02*
X139670000Y-92265000D01*
X143155000Y-90765000D02*
X141755000Y-92165000D01*
X144990000Y-87965000D02*
X144990000Y-87928000D01*
%TO.N,Net-(R12-Pad1)*%
X134874000Y-98252000D02*
X136144000Y-96982000D01*
X133350000Y-98252000D02*
X134874000Y-98252000D01*
%TO.N,Net-(IC7-FSW)*%
X138954000Y-97561000D02*
X139155000Y-97360000D01*
X139155000Y-97360000D02*
X139155000Y-96765000D01*
X136144000Y-98852000D02*
X137435000Y-97561000D01*
X137435000Y-97561000D02*
X138954000Y-97561000D01*
%TO.N,Net-(R17-Pad1)*%
X123744000Y-78994000D02*
X123744000Y-76027000D01*
X123744000Y-76027000D02*
X123663000Y-75946000D01*
%TO.N,Net-(IC7-COMP)*%
X138935000Y-90815000D02*
X139155000Y-91035000D01*
X139155000Y-91035000D02*
X139155000Y-93365000D01*
%TO.N,Net-(U2-LX)*%
X173632252Y-92196852D02*
X173736000Y-92300600D01*
X173736000Y-92300600D02*
X175249800Y-92300600D01*
X175249800Y-92300600D02*
X176668000Y-90882400D01*
%TO.N,Net-(LED1-K)*%
X167844855Y-94840600D02*
X165264555Y-97420900D01*
X168293304Y-94840600D02*
X167844855Y-94840600D01*
X165264555Y-97420900D02*
X164528652Y-97420900D01*
%TO.N,Net-(LED1-A)*%
X164528652Y-101484548D02*
X164084000Y-101929200D01*
X163999052Y-100051100D02*
X164528652Y-99521500D01*
X164729852Y-99722700D02*
X164528652Y-99521500D01*
X164528652Y-99521500D02*
X164528652Y-101484548D01*
X168538100Y-99521500D02*
X168618500Y-99441100D01*
X164528652Y-99521500D02*
X168538100Y-99521500D01*
%TO.N,Net-(LED2-K)*%
X170217500Y-98822500D02*
X170217500Y-99440900D01*
X168293304Y-96898304D02*
X170217500Y-98822500D01*
X168293304Y-96110600D02*
X168286000Y-96117904D01*
X168293304Y-96110600D02*
X168293304Y-96898304D01*
%TO.N,Net-(U1-VSET)*%
X165114500Y-66785900D02*
X165606400Y-66294000D01*
X163776400Y-66785900D02*
X165114500Y-66785900D01*
%TO.N,/D-*%
X160655000Y-56261000D02*
X162841400Y-54074600D01*
X162841400Y-54074600D02*
X168183485Y-54074600D01*
X168460537Y-54258200D02*
X169193200Y-54258200D01*
X169414063Y-54479063D02*
X169414063Y-55130700D01*
X168413811Y-54304926D02*
X168460537Y-54258200D01*
X169193200Y-54258200D02*
X169414063Y-54479063D01*
X163126400Y-64335900D02*
X168413811Y-59048489D01*
X168413811Y-59048489D02*
X168413811Y-55130700D01*
X163126400Y-64785900D02*
X163126400Y-64335900D01*
X168413811Y-55130700D02*
X168413811Y-54304926D01*
X168183485Y-54074600D02*
X168413811Y-54304926D01*
%TO.N,/D+*%
X175613600Y-54074600D02*
X170144515Y-54074600D01*
X168913937Y-55130700D02*
X168913937Y-55956474D01*
X168913937Y-55956474D02*
X168960663Y-56003200D01*
X168960663Y-56003200D02*
X169744263Y-56003200D01*
X169744263Y-56003200D02*
X169914189Y-55833274D01*
X169914189Y-54304926D02*
X169914189Y-55130700D01*
X170144515Y-54074600D02*
X169914189Y-54304926D01*
X169914189Y-58648111D02*
X169914189Y-55130700D01*
X163776400Y-64785900D02*
X169914189Y-58648111D01*
X177800000Y-56261000D02*
X175613600Y-54074600D01*
X169914189Y-55833274D02*
X169914189Y-55130700D01*
%TO.N,/CC2*%
X162476400Y-64785900D02*
X162476400Y-63289400D01*
X174907583Y-63246000D02*
X175641000Y-63246000D01*
X162476400Y-63289400D02*
X162433000Y-63246000D01*
X173245937Y-58377000D02*
X170914441Y-56045504D01*
X170914441Y-59252858D02*
X174907583Y-63246000D01*
X176106000Y-58377000D02*
X173245937Y-58377000D01*
X170914441Y-55130700D02*
X170914441Y-59252858D01*
X177800000Y-60071000D02*
X176106000Y-58377000D01*
X170914441Y-56045504D02*
X170914441Y-55130700D01*
%TO.N,/CC1*%
X167913685Y-55956474D02*
X167913685Y-55130700D01*
X165765947Y-56902900D02*
X166967259Y-56902900D01*
X166967259Y-56902900D02*
X167913685Y-55956474D01*
X162470847Y-60198000D02*
X165765947Y-56902900D01*
X160655000Y-65339500D02*
X160655000Y-60198000D01*
X162101400Y-66785900D02*
X160655000Y-65339500D01*
X160655000Y-60198000D02*
X162470847Y-60198000D01*
X162476400Y-66785900D02*
X162101400Y-66785900D01*
%TD*%
M02*
