M48
; DRILL file {KiCad 9.0.0} date 2025-03-28T23:25:53+0200
; FORMAT={-:-/ absolute / inch / decimal}
; #@! TF.CreationDate,2025-03-28T23:25:53+02:00
; #@! TF.GenerationSoftware,Kicad,Pcbnew,9.0.0
; #@! TF.FileFunction,Plated,1,2,PTH
FMAT,2
INCH
; #@! TA.AperFunction,Plated,PTH,ComponentDrill
T1C0.0010
; #@! TA.AperFunction,Plated,PTH,ComponentDrill
T2C0.0295
; #@! TA.AperFunction,Plated,PTH,ComponentDrill
T3C0.0394
; #@! TA.AperFunction,Plated,PTH,ComponentDrill
T4C0.1260
%
G90
G05
T1
X6.4717Y-2.2764
X6.4717Y-2.113
X6.8118Y-2.113
X6.8118Y-2.2764
T2
X5.9508Y-2.1555
X6.0295Y-2.1555
T3
X4.873Y-4.1795
X4.873Y-4.2795
X4.973Y-4.1795
X4.973Y-4.2795
X5.073Y-4.1795
X5.073Y-4.2795
X5.173Y-4.1795
X5.173Y-4.2795
X5.273Y-4.1795
X5.273Y-4.2795
X5.373Y-4.1795
X5.373Y-4.2795
X5.473Y-4.1795
X5.473Y-4.2795
X5.573Y-4.1795
X5.573Y-4.2795
X5.673Y-4.1795
X5.673Y-4.2795
X5.773Y-4.1795
X5.773Y-4.2795
X5.873Y-4.1795
X5.873Y-4.2795
X5.973Y-4.1795
X5.973Y-4.2795
X6.073Y-4.1795
X6.073Y-4.2795
X6.173Y-4.1795
X6.173Y-4.2795
X6.273Y-4.1795
X6.273Y-4.2795
X6.373Y-4.1795
X6.373Y-4.2795
T4
X5.6093Y-2.4193
X5.6132Y-2.813
X5.6132Y-3.2047
T3
G00X4.9291Y-2.2933
M15
G01X4.9291Y-2.2461
M16
G05
G00X5.1142Y-2.2933
M15
G01X5.1142Y-2.2461
M16
G05
G00X5.2992Y-2.2933
M15
G01X5.2992Y-2.2461
M16
G05
M30
